<svg xmlns="http://www.w3.org/2000/svg" width="28.772" height="23.368" viewBox="0 0 28.772 23.368">
  <path id="Twitter" d="M25.814,9.2c.018.256.018.511.018.767,0,7.8-5.933,16.777-16.777,16.777A16.664,16.664,0,0,1,0,24.1a12.2,12.2,0,0,0,1.424.073,11.809,11.809,0,0,0,7.321-2.519,5.907,5.907,0,0,1-5.513-4.089,7.436,7.436,0,0,0,1.114.091,6.237,6.237,0,0,0,1.552-.2,5.9,5.9,0,0,1-4.728-5.787V11.6a5.939,5.939,0,0,0,2.665.748A5.906,5.906,0,0,1,2.008,4.458a16.761,16.761,0,0,0,12.159,6.171,6.657,6.657,0,0,1-.146-1.351A5.9,5.9,0,0,1,24.226,5.243a11.61,11.61,0,0,0,3.743-1.424,5.881,5.881,0,0,1-2.592,3.25,11.821,11.821,0,0,0,3.4-.913A12.676,12.676,0,0,1,25.814,9.2Z" transform="translate(0 -3.381)" fill="#1e8d7f"/>
</svg>
