<svg xmlns="http://www.w3.org/2000/svg" width="28.719" height="28.719" viewBox="0 0 28.719 28.719">
  <path id="Icon_ionic-logo-whatsapp" data-name="Icon ionic-logo-whatsapp" d="M16.87,2.25a14.044,14.044,0,0,0-14.1,13.99,13.845,13.845,0,0,0,2.023,7.224L2.25,30.969l7.806-2.48A14.122,14.122,0,0,0,30.969,16.24,14.044,14.044,0,0,0,16.87,2.25Zm7.011,19.3a3.642,3.642,0,0,1-2.494,1.607c-.661.035-.68.512-4.285-1.053s-5.773-5.375-5.944-5.62a6.914,6.914,0,0,1-1.33-3.747A4,4,0,0,1,11.2,9.808a1.381,1.381,0,0,1,.976-.411c.284,0,.468-.008.678,0s.525-.044.8.682.926,2.51,1.009,2.692a.653.653,0,0,1,.007.626,2.448,2.448,0,0,1-.382.582c-.188.2-.4.451-.564.606-.187.171-.383.357-.186.722a10.789,10.789,0,0,0,1.909,2.547,9.837,9.837,0,0,0,2.827,1.879c.354.193.565.171.784-.06s.938-1.009,1.192-1.357.491-.28.817-.149,2.061,1.061,2.415,1.253.589.29.674.442A2.961,2.961,0,0,1,23.88,21.553Z" transform="translate(-2.25 -2.25)" fill="#1e8d7f"/>
</svg>
