<?xml version="1.0" encoding="UTF-8"?> <!-- Generator: Adobe Illustrator 23.0.1, SVG Export Plug-In . SVG Version: 6.00 Build 0) --> <svg xmlns="http://www.w3.org/2000/svg" xmlns:xlink="http://www.w3.org/1999/xlink" version="1.1" id="Calque_1" x="0px" y="0px" viewBox="0 0 309.5 227.7" style="enable-background:new 0 0 309.5 227.7;" xml:space="preserve"> <style type="text/css"> .st0{fill:none;stroke:#FFFFFF;stroke-width:0.922;stroke-linecap:round;stroke-linejoin:round;} .st1{clip-path:url(#SVGID_2_);} .st2{fill:#1E8D7F;} </style> <g id="LOGO_VLM" transform="translate(-13.667 17.058)"> <line id="Ligne_2" class="st0" x1="191.9" y1="-16.6" x2="191.9" y2="-16.6"></line> <g id="Groupe_2" transform="translate(13.667 -1.43)"> <g> <defs> <rect id="SVGID_1_" x="0.1" y="0.5" width="309.4" height="211.6"></rect> </defs> <clipPath id="SVGID_2_"> <use xlink:href="#SVGID_1_" style="overflow:visible;"></use> </clipPath> <g id="Groupe_1" transform="translate(0 0)" class="st1"> <path id="Tracé_1" d="M57.2,95.8c-0.2-0.7-0.4-1.4-0.7-2.1c-0.3-0.6-0.5-1.2-0.6-1.9c0-1.5,1.2-1.5,1.7-1.5 c0.3,0,1.7,0.1,2,0.1c0.2,0,0.9,0,1,0c0.1,0,0.3,0,0.6,0c0.3,0,0.5,0.1,0.6,0.1s0.4,0,0.7-0.1c0.3,0,0.6,0,0.7,0 c0.3,0,0.6,0.1,0.9,0.2c0.5,0.4,0.9,1,1.1,1.6c0,0.2,0.2,0.9,0.3,1.1c0,0.1,0.1,0.3,0.2,0.5c0.2,0.6,0.3,1.2,0.4,1.8 c0.1,0.3,0.1,0.7,0.1,1.1c0.1,0.4,0.8,2.7,0.8,2.9c0.1,0.3,0.1,0.5,0.1,0.8c0.1,0.9,0.2,1.4,0.5,1.4c0.1,0,0.3-0.5,0.3-0.5 c0,0,0.3-1.5,0.3-1.5c0.1-0.2,0.2-0.3,0.2-0.5c0.1-0.2,0.4-1.1,0.4-1.3c0.2-0.5,0.2-1.1,0.4-1.6c0.2-0.7,0.5-1.3,0.7-2 c0.1-0.4,0.1-0.7,0.2-1.1c0.1-0.8,0.3-1.5,0.7-2.2c0.4-0.4,0.9-0.6,1.4-0.6c0.1,0,0.4,0,0.6,0c0.3,0,0.6,0.1,0.7,0.1 c0.2,0,0.4,0,0.7-0.1c0.3-0.1,0.6-0.1,0.9-0.1c0.4,0,0.7,0.1,1.1,0.1h1.2c0.6,0,1.9,0,1.9,1.3c-0.1,0.8-0.3,1.5-0.6,2.3 c-0.3,0.6-0.5,1.4-0.5,2.1c-0.1,0.6-0.2,1.2-0.4,1.7c-0.2,0.6-0.5,1.2-0.7,1.8c-0.1,0.4-0.2,0.8-0.3,1.2c-0.1,0.2-0.9,2.3-1,2.7 c-0.1,0.3-0.1,0.6-0.2,0.9c-0.1,0.3-0.3,0.7-0.5,1c-0.2,0.5-0.4,1-0.5,1.6c-0.1,0.3-0.1,0.5-0.1,0.8c0,0.2-0.3,0.9-0.3,1 c-0.1,0.4-0.2,0.7-0.4,1.1c-0.1,0.3-0.3,0.7-0.4,1.1c-0.1,0.4-0.2,0.8-0.4,1.3c-0.3,0.6-0.5,0.9-1.5,0.9c-0.2,0-0.8,0-1,0 c-0.3,0-1.5,0.1-1.8,0.1c-0.4,0-0.8,0-1.1,0c-0.3,0-0.6-0.1-0.9-0.1c-0.2,0-0.4,0-0.7,0c-0.3,0-0.7,0-1,0.1 c-0.3,0-0.6,0.1-1,0.1c-1.1,0-1.8-0.4-2.2-2.1c-0.1-0.5-0.3-1-0.5-1.5c-0.1-0.3-0.2-0.5-0.2-0.8c-0.1-0.4-0.2-0.8-0.3-1.1 s-0.3-0.7-0.4-1c-0.1-0.4-0.2-0.8-0.3-1.2c-0.1-0.6-0.2-1.3-0.5-1.9c-0.1-0.2-0.2-0.4-0.3-0.7c-0.1-0.2-0.2-0.4-0.3-0.6 c-0.4-1-0.7-2.1-1-3.2C57.6,98,57.5,96.9,57.2,95.8"></path> <path id="Tracé_2" d="M77.9,111.7c0,1.3,1.4,1.3,1.6,1.3c0.2,0,1-0.1,1.1-0.1c0.1,0,0.8,0,0.9,0c0.3,0,1.4,0,1.6,0 c0.3,0,1.4,0.1,1.7,0.1c0.6,0,1.1-0.3,1.3-0.8c0.1-0.2,0.5-1.1,0.6-1.2c0.4-0.4,0.9-0.6,1.4-0.6c0.4,0,1.8,0.1,2.1,0.1 c0.2,0,0.3,0,0.5,0c0.2,0,1-0.1,1.2-0.1c0.9,0,1.1,0.3,1.7,1.6c0.4,0.9,0.5,1.1,1.7,1.1c0.1,0,0.6,0,0.7,0c0.1,0,0.4,0,0.7,0 c0.3,0,0.6,0.1,0.7,0.1c0.3,0,1.7-0.1,2-0.1c0.5,0,1,0,1.4,0c0.9-0.1,1.6-1,1.5-1.9c0-0.2,0-0.3-0.1-0.5c0,0-0.3-1.3-0.3-1.4 c0-0.1-0.2-0.6-0.3-0.7c-0.1-0.3-0.2-0.6-0.3-0.9c-0.1-0.4-0.2-0.8-0.3-1.1c-0.1-0.3-0.3-0.8-0.3-1.1c-0.1-0.3-0.2-0.6-0.3-0.9 c-0.1-0.3-0.2-0.6-0.3-1c-0.2-0.5-0.3-1.1-0.4-1.6c-0.3-0.8-0.5-1.7-0.6-2.6c-0.1-0.8-0.2-1.5-0.5-2.2c-0.3-0.7-0.5-1.6-0.7-2.1 c-0.1-0.4-0.2-0.7-0.3-1.1c-0.1-0.2-0.1-0.4-0.2-0.6c-0.1-0.6-0.3-1.2-0.6-1.8c-0.2-0.4-0.5-0.7-0.9-1c-0.5-0.2-1-0.3-1.6-0.3 c-0.2,0-0.9,0-1.1,0c-0.3,0-1.8-0.1-2.1-0.1c-0.1,0-0.8,0.1-0.9,0.1c-0.4,0-1.6,0.1-2,0.1c-0.4,0-2-0.1-2.3-0.1 c-0.6-0.1-1.2,0.1-1.8,0.4c-0.4,0.4-0.7,0.8-0.9,1.4c-0.1,0.4-0.3,0.8-0.4,1.1c-0.1,0.4-0.2,0.8-0.3,1.1c-0.1,0.2-0.9,2.4-1,2.8 c-0.1,0.4-0.2,0.8-0.3,1.2c-0.1,0.2-0.2,0.5-0.2,0.7c-0.3,0.7-0.5,1.4-0.8,2.1c-0.3,0.9-0.4,1.9-0.6,2.8 c-0.2,0.6-0.4,1.2-0.6,1.9c-0.1,0.3-0.2,0.7-0.3,1c-0.2,1.1-0.5,2.1-0.8,3.1C78.1,110.5,77.9,111.1,77.9,111.7 M90.2,98.1 c0.4,0,0.5,0.3,0.6,0.5c0.1,0.4,0.2,0.7,0.3,1c0.1,0.2,0.2,0.4,0.2,0.6c0.1,0.4,0.1,0.7,0.2,1c0.1,0.3,0.1,0.5,0.2,0.8 c0,0.1,0.1,0.3,0.1,0.4c0,0.4-0.3,0.7-0.9,0.7c-0.1,0-0.7,0-0.8,0c-0.3,0-0.7,0-1,0c-0.4-0.1-0.6-0.4-0.6-0.8 c0.1-0.7,0.3-1.3,0.5-2c0.1-0.5,0.2-1,0.4-1.5C89.7,98.3,89.9,98.1,90.2,98.1"></path> <path id="Tracé_3" d="M104.4,101.7c0-0.6-0.1-1.1-0.1-1.7c0-0.5,0-1,0-1.5s0-1,0-1.5c0-0.3,0.1-1.5,0.1-1.8 c0-0.5-0.2-2.8-0.2-3c0-0.4,0.1-0.9,0.3-1.3c0.3-0.4,0.8-0.6,1.3-0.6c0.5,0,1,0.1,1.5,0.2c0.2,0,0.3,0,0.4,0 c0.2,0,0.8,0,1.4-0.1c0.6,0,1.2-0.1,1.4-0.1c1.6,0,1.9,0.3,2.3,0.7c0.3,0.3,0.4,0.8,0.4,1.2c0,0.4-0.2,2.5-0.2,3 c0,0.5,0.2,3,0.2,3.6c0,0.2,0,0.4,0,0.5c0,0.7-0.1,1.3-0.1,2c0,0.1,0,0.3,0,0.5v2.7c0,0.3,0,0.6,0,0.9c0,0.2,0.1,1.1,0.1,1.2 c0,0.1,0,0.5,0,0.6c0,0.1-0.1,1.8-0.1,2c0,0.5,0.1,1,0.1,1.5c0,0.2,0.1,0.8,0.1,0.8c0,1.1-0.8,1.5-1.9,1.5 c-0.3,0-1.8-0.1-2.1-0.1c-0.4,0-2.3,0.1-2.7,0.1c-1.2,0-2.4-0.1-2.4-1.5c0-0.2,0.1-1.2,0.1-1.4v-3.2c0-0.3,0-0.7,0-1 c0-0.1,0.1-1.4,0.1-1.4c0,0-0.1-1.2-0.1-1.8L104.4,101.7z"></path> <path id="Tracé_4" d="M130.7,94.1c0-0.3,0-0.7,0-1.1c0-0.2-0.1-0.9-0.1-1.1c0-0.4,0.1-0.8,0.4-1c0.4-0.5,0.8-0.6,1.6-0.6 c0.2,0,1.3,0,1.3,0s1,0.1,1,0.1c0.6,0,1.3-0.1,1.9-0.1c0.6,0,1.1,0.1,1.6,0.3c0.7,0.4,1,1.1,0.9,1.9c0,0,0,1.3,0,1.4 c0,0.3-0.2,1.6-0.2,1.9c0,0.3,0.1,2.1,0.1,2.5c0,0.7,0,1.4-0.1,2.1c-0.1,1.1-0.1,1.2-0.1,1.5c0,0.5,0.2,2.7,0.2,3.2 c0,0.6,0,3.8,0,4.5c0,0.3,0,0.6,0,0.9c0,0.4,0.1,0.7,0.1,1.1c0,1.1-0.8,1.5-1.7,1.5c-0.2,0-1.2-0.1-1.5-0.1 c-0.2,0-1.1,0-1.7,0.1c-0.2,0-0.4,0.1-0.7,0.1c-1.8,0-1.9-0.2-2.3-0.6c-0.1-0.2-0.3-0.3-0.5-0.5c-0.4-0.4-0.8-0.9-1.2-1.4 c-0.3-0.5-0.6-0.9-0.9-1.4c-0.2-0.3-1.2-1.4-1.4-1.8c-0.1-0.1-0.2-0.3-0.3-0.4c-0.1-0.2-0.3-0.4-0.4-0.5 c-0.1-0.2-0.2-0.4-0.3-0.5c-0.1-0.2-0.3-0.4-0.5-0.4c-0.6,0-0.6,0.7-0.6,1.1c0,0.1,0,0.9,0,1.1c0,0.4,0,2.1,0,2.4v0.3 c0,0.2,0.1,1,0.1,1.2c0,0.2,0,0.4-0.1,0.6c-0.2,0.5-0.7,0.8-1.2,0.8c-0.2,0-0.9-0.1-1.1-0.1s-1.2,0.1-1.4,0.1 c-0.3,0-1.6-0.1-1.9-0.1c-0.3,0-1.5,0.1-1.8,0.1c-0.8,0-1.5-0.6-1.5-1.4c0-0.1,0-0.1,0-0.2c0-0.3,0-0.6,0.1-0.9 c0-0.4,0-0.7,0-1.1c0-0.5,0.1-1.1,0.2-1.6c0-0.3,0-0.5,0-0.8c0-0.4-0.1-2.1-0.1-2.5c0-0.3,0-2,0-2.4c0-0.6,0.1-3.7,0.2-4.6 c0-0.7,0.1-1.3,0.1-2c0-0.7-0.1-1.4-0.2-2.1c-0.1-0.4-0.1-0.8-0.1-1.2c0-0.5,0.1-1,0.4-1.4c0.3-0.4,0.7-0.5,1.6-0.5h0.6 c0.1,0,0.3,0,0.4,0h0.3c0.6,0,2,0,2.6,0c0.4,0,0.8-0.1,1.2-0.1c0.8-0.1,1.5,0.2,2,0.9c0.4,0.6,0.8,1.2,1.1,1.9 c0.2,0.3,0.3,0.5,0.5,0.8c0.3,0.3,0.5,0.7,0.7,1.1c0.1,0.3,0.3,0.6,0.4,0.8c0.1,0.1,0.3,0.3,0.3,0.5c0.1,0.2,0.2,0.3,0.3,0.5 c0.5,0.6,0.6,0.8,1,0.8c0.3,0,0.5-0.2,0.5-0.5c0,0,0,0,0,0c0,0-0.1-1.2-0.1-1.4L130.7,94.1z"></path> <path id="Tracé_5" d="M141.6,104.1c0-0.3-0.1-0.7-0.1-1.1c-0.1-0.6-0.2-1.2-0.2-1.8c0-1,0.1-2,0.3-3c0.2-0.5,0.4-1,0.6-1.5 c0.2-0.5,0.3-0.9,0.5-1.4c0.2-0.4,0.4-0.8,0.7-1.1c0.6-0.8,1.3-1.5,2.2-2c1-0.9,2.3-1.5,3.6-1.6c1-0.3,2-0.4,3-0.4 c1.3-0.1,2.7,0.1,3.9,0.4c0.2,0.1,0.8,0.3,1,0.7c0,0.4,0,0.7,0,1.1c0,0.3-0.1,1.8-0.1,2.1v0.2c0,0.4,0.2,2.1,0.2,2.5 c0,1.7-0.8,1.8-1.4,1.8c-0.2,0-1-0.1-1.2-0.1c-0.2,0-0.9,0.1-1.1,0.1l-0.6,0h-0.3c-0.6,0-1.2,0.2-1.7,0.5 c-0.7,0.5-1.1,1.3-1.1,2.1c0,0.3,0,0.5,0.1,0.8c0.1,0.5,0.3,0.9,0.6,1.3c0.7,0.6,1.6,0.9,2.6,0.9c0.4,0,1.5-0.3,2.1-0.3h0.2 c1.5,0,1.9,0.5,1.9,2.2c0,0.3,0,1.5,0,1.8c0,0.6,0,1.1,0.1,1.7c0,0.3,0.1,0.7,0.1,1c0,0.4-0.1,0.7-0.3,1c-0.4,0.5-0.9,0.9-1.5,1 c-0.2,0-1.3,0.1-1.5,0.1c-0.6,0.1-1.1,0.1-1.7,0.1c-0.6,0-1.2-0.1-1.7-0.3c-0.6-0.1-1.3-0.1-1.9-0.3c-0.5-0.1-1-0.3-1.5-0.5 c-1.2-0.4-2.2-1.1-2.9-2.1c-0.3-0.3-0.5-0.7-0.8-1c-0.2-0.2-0.3-0.5-0.5-0.7C142.2,107.2,141.6,105.7,141.6,104.1"></path> <path id="Tracé_6" d="M169.3,99.1c0,0.1,0.1,0.5,0.1,0.6s0,0.5,0,0.6c0,0.9,0.5,1.1,1,1.1c0.5,0,1-0.1,1.5-0.3 c0.5-0.1,0.9-0.3,1.2-0.7c0.3-0.2,0.4-0.6,0.4-0.9c0.1-0.6-0.2-1.1-0.7-1.4c-0.4-0.2-0.8-0.3-1.2-0.3c-0.1,0-0.3,0-0.4,0 c-0.4-0.1-0.5-0.1-0.6-0.1C169.3,97.6,169.3,98.2,169.3,99.1 M160.5,94c0-0.2,0-1.2,0-1.4c0-0.4,0.1-0.8,0.2-1.2 c0.4-0.7,1.2-1.2,2-1.1c0.3,0,0.6,0,0.8-0.1c0.2,0,1.2,0,1.4,0c0.2,0,0.9,0.1,1.1,0.1c0.1,0,0.6,0,0.8,0c0.4,0,2.4-0.1,2.5-0.1 c0.7,0,1.3,0.1,2,0.2c0.2,0,1.3,0,1.6,0c0.9,0,1.8,0.1,2.7,0.4c0.6,0.1,1.2,0.3,1.7,0.5c0.6,0.3,1.2,0.7,1.6,1.1 c0.3,0.2,0.6,0.5,0.8,0.9c0.1,0.2,0.3,0.3,0.3,0.5c0.1,0.2,0.2,0.4,0.3,0.6c0.1,0.2,0.2,0.3,0.3,0.5c0.6,1,1,2.2,1,3.4 c0,0.4-0.1,0.7-0.2,1.1c-0.1,0.9-0.4,1.8-0.8,2.6c-0.6,1.3-1.6,2.3-3,2.7c-0.2,0.1-0.5,0.2-0.5,0.6c0,0.2,0.2,0.4,0.5,0.5 c0.3,0.1,0.6,0.2,0.9,0.2c0.3,0,0.6,0,0.8-0.1c0.1,0,0.7-0.1,0.9-0.1c0.5,0,1.6,0,1.6,1.7c0,0.3-0.1,1.5-0.1,1.8 c0,0.6,0.1,1.2,0.1,1.8c0,1.7-0.8,1.9-1.5,1.9c-0.1,0-0.6,0-0.7,0c-0.5,0-1,0-1.4,0c-0.7,0-1.5,0-2.2-0.2 c-1.1-0.5-2.2-1.1-3.2-1.8c-0.3-0.2-0.6-0.4-0.9-0.6c-0.1-0.1-1.5-1.2-1.5-1.2c-0.2-0.1-0.4-0.1-0.7-0.2c-0.4,0-0.7,0.5-0.7,0.9 c0,0.3,0,0.6,0.1,0.9c0.1,0.2,0.1,0.3,0.2,0.5c0,0.1,0,0.2,0,0.3c0.1,0.7-0.4,1.3-1,1.3c-0.1,0-0.2,0-0.3,0 c-0.2,0-1-0.1-1.2-0.1c-0.3,0-1.5,0.1-1.7,0.1c-0.2,0-0.4,0-0.6,0c-0.2,0-1-0.1-1.2-0.1c-0.2,0-1.3,0.1-1.6,0.1 c-0.7,0.1-1.4-0.4-1.5-1.2c0-0.1,0-0.2,0-0.3c0-0.2,0-0.4,0.1-0.6c0.1-0.5,0.1-1,0.1-1.5c0-0.4,0-1.7,0-2.1 c0-0.1-0.1-1.1-0.1-1.1c0-0.4,0.1-0.9,0.1-1.3c0-0.2,0-0.9,0-1c0-0.3,0.1-1.4,0.1-1.7v-3.4c0-0.1,0-0.5,0-0.6v-0.6 c0-0.3-0.1-1.7-0.2-2.1L160.5,94z"></path> <path id="Tracé_7" d="M198.5,98.7c0.2,0,1.3-0.1,1.6-0.1c1.2,0,1.6,0.2,1.7,1.4c0,0.3,0,0.7,0,1c0,0.3,0.1,1.7,0.1,2 c0,1.2-0.5,1.3-1,1.3c-0.3,0-0.5,0-0.8,0c-0.2,0-0.3,0-0.5,0.1c-0.1,0-2.9,0.1-3,0.1c-0.2,0-1.2-0.1-1.4-0.1 c-0.3,0-1.3,0-1.3,0.7c0,1,1.2,1,2,1c0.2,0,0.5,0,1.1-0.1c0.5-0.1,0.9-0.1,1.4-0.1c0.2,0,1,0,1.2,0c0.5,0,1,0,1.4,0 c0.8,0,1,0.2,1.2,0.4c0.4,0.4,0.6,1,0.6,1.6c0,0.2,0,0.9,0,1.1c0,0.3,0.1,1.5,0.1,1.8c0,1.7-0.3,2.3-1.7,2.3 c-0.3,0-1.7-0.1-2-0.1c-0.2,0-0.6,0-1.2,0.1c-0.6,0.1-1.1,0.1-1.7,0.1c-0.2,0-0.7,0-1.3-0.1c-1.3-0.1-2.7-0.1-4,0 c-0.1,0-0.6,0-1,0c-0.7-0.1-1.4-0.1-2.1,0c-0.5,0-0.9,0.1-1.1,0.1c-1.5,0-1.6-0.9-1.6-1.6c0-0.2,0.1-1.2,0.1-1.4 c0-0.5,0.1-3,0.1-3.6c0-0.3,0.1-1.7,0.1-2c0-0.6,0-1.1-0.1-1.7c-0.1-0.5-0.1-1-0.1-1.5c0,0,0-0.7,0-0.7c0-0.2,0-0.5,0-0.7 c0-0.3-0.1-1.7-0.1-2c0-0.6,0.1-1.3,0.1-2c0-0.3,0-0.6,0-0.9c0-0.5,0-1.1-0.1-1.6c0-0.3-0.1-0.6-0.1-1c0-1.8,1-2.2,2-2.2 c0.2,0,1.1,0.1,1.3,0.1c0.5,0,1.4,0,1.9,0c0.3,0,1.5-0.1,1.8-0.1c0.2,0,0.4,0,0.6,0c0.1,0,0.2,0.1,0.4,0.1c0.1,0,0.2,0,0.2,0 h0.2c0.1,0,0.3,0,0.4,0c0.2,0,0.4,0,0.4,0c0.1,0,0.2,0,0.3,0h0.4c0.1,0,0.3,0,0.4,0c0.2,0,0.3,0,0.4,0c0.2,0,0.3,0,0.5,0 c0.1,0,1.6-0.1,1.6-0.1c0.1,0,0.7,0,0.8,0h0.7c0.1,0,0.6,0,0.7,0c0.3,0,0.6,0,0.9,0.1c0.8,0.4,0.8,1.6,0.8,1.9 c0,0.4,0,0.8,0,1.2c0,0.3,0.1,1.5,0.1,1.8c0,0.4-0.1,0.8-0.3,1.2c-0.1,0.4-0.5,0.6-0.9,0.6c-0.1,0-0.7,0-0.9,0s-1,0-1.2,0 c-0.2,0-1.3-0.1-1.5-0.1s-1.1,0.1-1.4,0.1c-0.2,0-0.9-0.1-1.1-0.1c-0.5,0-1.2,0-1.2,0.7c0,0.9,0.6,0.9,2.2,0.9 c0.2,0,1-0.1,1.2-0.1c0.1,0,0.6,0,0.7,0L198.5,98.7z"></path> <path id="Tracé_8" d="M211.8,98.6c0.1-1,0.1-1.1,0.1-1.4c0-0.3-0.1-2.1-0.1-2.5c0-0.2,0.1-1.3,0.1-1.5c0-0.1,0-0.5,0-0.6 c0-0.8,0.3-2.1,1.8-2.1c0.3,0,2,0.2,2.4,0.2c0.3,0,1.8-0.2,2.1-0.2c2.1,0,2.3,0.9,2.3,2.3c0,0.5,0,1.3,0,1.9v0.5 c0,0.2,0,1.1,0,1.3v0.2c0,0.5-0.2,1.1-0.2,1.6v0.3c0,0.3,0.1,1.9,0.1,2.2c0,0.2,0,1.3,0,1.5c-0.1,0.6,0.1,1.2,0.4,1.7 c0.3,0.3,0.6,0.4,1,0.4c0.2,0,1.3-0.1,1.5-0.1c0.4,0,0.7,0.1,1,0.1c0.1,0,0.5-0.1,0.6-0.1c0.9,0.1,1.7,0.9,1.7,1.8 c0,0.2-0.1,0.4-0.1,0.7c-0.1,0.4-0.1,1.9-0.1,2.4c0,0.3,0,0.6,0.1,1c0,0.3,0.1,0.6,0.1,0.9c0,0-0.1,2.1-1.6,2.1 c-0.3,0-1.7-0.2-2-0.2c-0.6,0-1.2,0.1-1.8,0.1c-0.6,0-1.6,0-1.8,0c-0.2,0-1.1,0-1.3,0h-0.4c-0.1,0-0.8-0.1-0.9-0.1 c-0.4,0-0.9,0-1.3,0c-0.5,0-1,0.1-1.6,0.1c-2,0-2-1.3-2-2c0-0.4,0-0.8,0-1.2c0-0.2,0-0.9,0-1.1c0-0.3,0.1-1.9,0.1-2.2 c0-0.2,0-0.5,0-0.7c0-0.5-0.2-2.8-0.2-3.3C211.7,101.7,211.8,99.5,211.8,98.6"></path> <path id="Tracé_9" d="M227.8,111.7c0,1.3,1.4,1.3,1.6,1.3c0.2,0,1-0.1,1.1-0.1c0.1,0,0.8,0,0.9,0c0.3,0,1.4,0,1.6,0 c0.3,0,1.4,0.1,1.7,0.1c0.6,0,1.1-0.3,1.3-0.8c0.1-0.2,0.5-1.1,0.6-1.2c0.4-0.4,0.9-0.6,1.4-0.6c0.4,0,1.8,0.1,2.1,0.1 c0.2,0,0.3,0,0.5,0c0.2,0,1-0.1,1.2-0.1c0.9,0,1.1,0.3,1.7,1.6c0.4,0.9,0.5,1.1,1.7,1.1c0.1,0,0.6,0,0.7,0c0.1,0,0.4,0,0.7,0 c0.3,0,0.6,0.1,0.7,0.1c0.3,0,1.7-0.1,2-0.1c0.5,0,1,0,1.4,0c0.9-0.1,1.6-1,1.5-1.9c0-0.2,0-0.3-0.1-0.5c0,0-0.3-1.3-0.3-1.4 c0-0.1-0.2-0.6-0.3-0.7c-0.1-0.3-0.2-0.6-0.3-0.9c-0.1-0.4-0.2-0.8-0.3-1.1c-0.1-0.3-0.3-0.8-0.4-1.1c-0.1-0.3-0.2-0.6-0.3-0.9 c-0.1-0.3-0.2-0.6-0.3-1c-0.2-0.5-0.3-1.1-0.4-1.6c-0.3-0.8-0.5-1.7-0.6-2.6c-0.1-0.8-0.2-1.5-0.5-2.2c-0.3-0.7-0.5-1.6-0.7-2.1 c-0.1-0.4-0.2-0.7-0.3-1.1c-0.1-0.2-0.1-0.4-0.2-0.6c-0.1-0.6-0.3-1.2-0.6-1.8c-0.2-0.4-0.5-0.7-0.9-1c-0.5-0.2-1-0.3-1.6-0.3 c-0.2,0-0.9,0-1.1,0c-0.3,0-1.8-0.1-2.1-0.1c-0.1,0-0.8,0.1-0.9,0.1c-0.4,0-1.6,0.1-2,0.1c-0.4,0-2-0.1-2.3-0.1 c-0.6-0.1-1.2,0.1-1.8,0.4c-0.4,0.4-0.7,0.8-0.9,1.4c-0.1,0.4-0.3,0.8-0.4,1.1c-0.1,0.4-0.2,0.7-0.3,1.1c-0.1,0.2-0.9,2.4-1,2.8 c-0.1,0.4-0.2,0.8-0.3,1.2c-0.1,0.2-0.2,0.5-0.2,0.7c-0.3,0.7-0.5,1.4-0.8,2.1c-0.3,0.9-0.4,1.9-0.6,2.8 c-0.2,0.6-0.4,1.2-0.6,1.9c-0.1,0.3-0.2,0.7-0.3,1c-0.2,1.1-0.5,2.1-0.8,3.1C228,110.5,227.8,111.1,227.8,111.7 M240.1,98.1 c0.4,0,0.5,0.3,0.6,0.5c0.1,0.4,0.2,0.7,0.3,1c0.1,0.2,0.2,0.4,0.2,0.6c0.1,0.4,0.1,0.7,0.2,1c0.1,0.3,0.1,0.5,0.2,0.8 c0,0.1,0.1,0.3,0.1,0.4c0,0.4-0.3,0.7-0.9,0.7c-0.1,0-0.7,0-0.8,0c-0.4,0-0.7,0-1,0c-0.4-0.1-0.6-0.4-0.6-0.8 c0.1-0.7,0.3-1.3,0.5-2c0.1-0.5,0.2-1,0.4-1.5C239.6,98.3,239.8,98.1,240.1,98.1"></path> <path id="Tracé_10" d="M9.5,149.3c0,0.5,0.1,3.2,0.1,3.8c0,0.4-0.1,2.5-0.1,2.9s0.1,2.2,0.1,2.6c0,0.4,0,1.4-1.7,1.4 c-0.1,0-1.4-0.1-1.4-0.1c-0.7-0.1-1.3-0.1-2.4-0.1c-0.7,0-1.9,0.1-2.6,0.1c-1.2,0-1.5-0.6-1.5-1.8c0-1.3,0.1-7.7,0.1-9.2 s-0.1-9-0.1-10.7c0-0.8,0.1-4.8,0.1-5.7c0-0.6-0.1-3.5-0.1-4.2c0-0.5,0.1-2.7,0.1-3.2c0-0.6-0.1-3.4-0.1-4.1 c-0.1-0.9,0-1.8,0.3-2.7c0.2-0.6,0.8-1,1.4-1c0.5,0,2.9,0.1,3.4,0.1c0.5,0,3.1-0.1,3.6-0.1c0.6-0.1,1.2,0.2,1.6,0.7 c0.2,0.6,0.4,1.1,0.5,1.7c0.1,0.4,0.7,1.8,0.7,2.2c0.3,0.8,0.7,1.6,1,2.5c0.1,0.4,0.8,2.7,0.9,3s0.1,0.5,0.2,0.8 c0.1,0.4,0.2,0.7,0.4,1.1c0.2,0.6,0.4,1.2,0.5,1.8c0.2,0.5,0.4,0.6,0.5,0.6c0.3,0,0.8-1.4,1-1.9c0.1-0.7,0.3-1.3,0.6-2 c0.4-1,1.8-4.9,2.1-6c0.2-0.7,0.4-1.5,0.5-2.3c0.4-1.2,0.7-2.2,2-2.2c0.5,0,3.7,0.1,4.4,0.1c0.4,0,2.5-0.1,3-0.1 c0.7,0,2,0,2,1.6c0,0.1-0.1,0.3-0.1,0.4c0,0.8-0.2,4.4-0.2,5c0,0.7,0.1,3.9,0.1,4.7c0,0.7,0.1,4.5,0.1,5.3v2.3 c-0.1,1.3-0.1,4.8-0.1,4.9c0,0.9,0.1,4.8,0.1,5.8c0,0.7-0.2,4.2-0.2,5v1.5c0.1,0.5,0.2,2.8,0.2,3.4c0,1.6-0.3,2.5-1.9,2.5 c-0.5,0-2.7-0.1-3.2-0.1c-0.4,0-2,0.1-2.4,0.1c-2.3,0-2.3-1.6-2.3-2.1c0-0.3,0.1-1.7,0.1-2.1c0.1-0.6,0.1-1.3,0.1-1.9v-3.3 c0-0.7,0.1-4.2,0.1-5.1c0-0.3-0.1-1.9-0.1-2.3c0-0.2,0.1-3.9,0.1-4.2v-0.8c0-0.1-0.1-0.2-0.2-0.2c0,0,0,0,0,0 c-0.4,0-0.4,0.1-0.6,0.8c0,0.2-0.1,0.4-0.1,0.5c-0.1,0.3-0.2,0.5-0.2,0.8c-0.1,0.4-0.8,2.5-1,3c-0.4,1.1-0.8,2.1-1.3,3.2 c-0.3,0.6-0.6,1.3-0.8,1.9c-0.6,1.3-0.8,1.7-1.4,1.7c-0.8,0-1.4-0.4-2-1.7c-0.2-0.7-0.4-1.4-0.7-2c-0.3-1-0.7-1.9-1.2-2.8 c-0.3-0.8-0.5-1.7-0.8-2.6c-0.8-2.6-0.8-2.7-1.1-2.7c-0.3,0.1-0.4,0.3-0.4,0.6c0,0.1,0.1,0.8,0.1,1c0,0.1-0.1,0.8-0.1,1 c0,0.5,0.1,1,0.1,1.4c0.1,1.1,0.2,3.8,0.2,4.6L9.5,149.3z"></path> <path id="Tracé_11" d="M37.5,117.2c0.5,0,3.4,0.1,3.9,0.1c0.3,0,1.8-0.1,2.1-0.1c0.7,0,2,0.2,2,1.7c0,1.8-0.1,4.8-0.1,6.6 c0,0.7,0.1,3.9,0.1,4.6c0,1-0.2,5.7-0.2,6.7c0,0.6,0.2,3.4,0.2,4.1c0,1-0.1,2.5-0.1,3.6c0,0.5-0.1,3.1-0.1,3.7 c0,1.6,0.5,2.5,2.2,2.5c1.6,0,2.5-0.5,2.5-2.5V145c0-0.4-0.1-1.4-0.1-1.9c-0.1-0.4-0.1-3.6-0.1-4.2c0-0.5,0.1-2.8,0.1-3.2 c0-0.9-0.1-5.2-0.1-6.2c0-0.7,0.1-4.6,0.1-5.4c0-0.5-0.1-2.7-0.1-3.2v-1c0-0.2-0.1-1-0.1-1.3c0-1.1,1-1.4,1.9-1.4 c0.4,0,2.6,0.1,3.1,0.1c0.4,0,2-0.1,2.4-0.1c1.1-0.1,2.1,0.7,2.2,1.8c0,0.2,0,0.3,0,0.5c0,0.2-0.1,1.7-0.1,2 c0,0.7,0.2,3.7,0.2,4.5c0,0.4-0.1,2.6-0.1,3.1c0,0.5,0.1,3.1,0.1,3.7s-0.2,3.6-0.2,4.3c0,0.6,0.1,3.7,0.1,4.3 c0,0.8-0.2,4.5-0.2,5.4c0,0.5,0.1,3.1,0.1,3.6c0,3.2-1.6,6.2-4.3,8c-2.1,1.6-4.6,2.4-7.2,2.2c-5.4,0-7.4-1.1-9-2.7 c-2.8-2.7-2.9-5.3-2.9-8c0-1.5,0-3-0.1-4.5c0-0.8-0.2-4.9-0.2-5.8c0-1.5,0.1-3,0.1-4.5c0-0.6,0.1-3.4,0.1-4.1 c0-0.2-0.1-1.3-0.1-1.6c0-0.7,0.1-1.4,0.1-2.2c0-0.3,0-0.4-0.1-1.5c-0.1-0.9-0.1-1.6-0.1-2.8c0-0.4-0.1-2.5-0.1-3 C35.9,117.3,37.3,117.2,37.5,117.2"></path> <path id="Tracé_12" d="M63.5,131.8c0.2-2.7,0.4-6,2.2-9.1c0.8-1.4,1.8-2.6,3-3.6c1.9-1.6,4.3-2.4,6.8-2.3c1.5,0,3,0.1,4.4,0.4 c0.9,0.3,1.5,1.1,1.6,2c0,0.2-0.1,1.3-0.1,1.6c0,0.6,0.1,3.5,0.1,4.1c0,0.5,0,2.1-1.7,2.1c-0.4,0-0.7-0.1-1.1-0.2 c-0.5-0.1-1-0.2-1.6-0.2c-1.5-0.1-3,0.8-3.7,2.2c-0.7,1.5-0.8,8.4-0.8,9.6c0,6.7,0.7,8.7,2.1,10.1c0.9,0.8,2.1,1.1,4.1,1.1 c2.5,0,2.6,1,2.7,2.2c0,0.4-0.1,2.2-0.1,2.6c0,0.4,0.1,2.4,0.1,2.9c0.1,0.6-0.1,1.1-0.5,1.6c-0.5,0.7-1.4,1.1-2.3,1 c-0.3,0-0.6,0-0.8-0.1c-4-0.2-5.9-0.4-8.2-1.5c-1-0.5-1.7-0.8-3.6-3.3c-2.5-3.1-3.1-8.1-3.1-16.6 C63.3,136.6,63.4,134.2,63.5,131.8"></path> <path id="Tracé_13" d="M84.2,133.1c0,0.5,0.1,2.7,0.1,3.1s-0.1,2.2-0.1,2.6c0,1.2,0.2,6.7,0.2,7.8c-0.1,1.8,0,3.7,0.5,5.5 c0.3,1.9,1.1,3.7,2.4,5.1c1.3,1.5,3.9,3.2,8.1,3.2c3.6,0,6.2-0.7,8.4-2.5c3.4-2.8,4.1-7.2,4.1-13.7c0-3-0.1-6-0.2-9 c-0.1-1.7-0.1-3.4-0.1-5.1c-0.1-3.2-0.2-6.7-2.4-9.8c-1-1.2-2.2-2.1-3.6-2.6c-1.8-0.6-3.7-0.9-5.6-0.9c-3.9,0-5.3,0.7-6.3,1.3 c-2,1-3.7,2.6-4.5,4.7C84.5,124.9,84.2,130.4,84.2,133.1 M96,125.4c2,0,2.2,2.3,2.2,3.3c0.1,2.1,0.2,5.7,0.2,7.7 c0,1.1-0.1,6-0.1,7c0,0.7,0.1,3.7,0.1,4.3c0,1.9-0.7,3.3-2.4,3.3c-1.5,0-1.9-1.7-2-2.5c-0.2-1-0.2-5.8-0.2-7.1 c0-2.4-0.1-6.2-0.1-8.5c-0.1-2,0-3.9,0.3-5.8C94.2,126.1,95,125.4,96,125.4"></path> <path id="Tracé_14" d="M111.9,136.8c-0.5-2.7-1.1-5.3-1.6-7.9c-0.3-2-0.4-4.2-0.8-6.3c-0.3-1.3-0.5-2.6-0.6-3.9 c0-1.2,1-1.2,1.5-1.2c0.4,0,2.1,0.1,2.5,0.1c0.5,0,3.1-0.2,3.7-0.2c1.7,0,1.9,0.9,2.2,2c0.2,1,0.9,6.6,1,7.3 c0.1,1.1,0.3,2.1,0.5,3.2c0.1,1.2,0.2,2.5,0.3,3.8c0.1,1.3,0.9,8,1,9.5c0,0.3,0.2,1.8,0.2,1.9c0,0.3,0.1,1.2,0.4,1.2 c0.2,0,0.3-0.2,0.5-1.6c0-0.2,0.4-4,0.4-4.5c0.1-1.5,1-8.7,1.1-10.3c0-0.4,0.1-2.5,0.2-3c0.1-0.6,0.2-1.2,0.3-1.8 c0.2-1.2,0.3-2.5,0.3-3.7c0.2-3.2,0.3-3.9,2.8-3.9c0.5,0,3.1,0.2,3.7,0.2c0.4,0,0.8,0,1.1-0.1h1.1c0.9,0,1.4,0.7,1.4,1.7 c0,0.6-0.1,1.3-0.4,1.9c-0.4,1.8-1,6.7-1,7.3s-0.1,1.3-0.2,1.9c-0.1,0.2-1.4,8.1-1.6,8.7c-0.3,1.6-1.4,9.6-1.8,11.4 c-0.2,1-0.5,2-0.7,3.1c-0.1,0.5-0.5,3.4-0.7,4.1c-0.2,1-0.4,2.4-2,2.4c-0.4,0-0.9-0.1-1.3-0.1c-1.3-0.1-2.5-0.1-3.3-0.1h-3.1 c-0.2,0-1.3,0.1-1.5,0.1c-1.2,0-1.4-1-1.6-1.7c-0.1-0.5-0.7-3.5-0.9-4.2c-0.5-2.6-1.1-5.2-1.6-7.8c-0.3-1.6-0.6-3.3-0.8-4.9 C112.5,139.8,112.2,138.3,111.9,136.8"></path> <path id="Tracé_15" d="M140.1,117.3c0.4,0,2.4,0.1,2.9,0.1s2.9-0.1,3.5-0.1c1.4,0,1.4,1.4,1.4,1.7c0,0.4,0,0.8-0.1,1.1 c-0.1,0.7-0.1,1.5-0.1,2.2c0,2,0,4-0.1,6.1c0,1,0.1,2.7,0.1,3.7c0,0.4-0.1,2-0.1,2.5c0,0.6,0.1,3.6,0.1,4.3s-0.1,3.8-0.1,4.6 c0,0.5,0.1,3.1,0.1,3.6c0,1-0.2,5.8-0.2,6.9c0,0.9,0.1,1.8,0.1,2.6c0.1,0.5,0.1,1,0.1,1.6c0,0.8-0.6,1.5-1.4,1.6 c-0.2,0.1-1.7,0-2,0c-0.7,0-4,0.1-4.7,0.1c-1.4,0-1.4-1.5-1.4-2.2v-0.1c0-0.8,0.1-5,0.1-5.9c0.1-1.9,0-4.8,0-6.6 c0-1.1,0.2-6.4,0.2-7.6c0-0.6-0.1-3.5-0.1-4.2c0-0.5,0.1-2.6,0.2-3.1c0-0.8-0.1-4.5-0.1-5.4c0-0.3,0.1-1.9,0.1-2.2 c0-0.4-0.1-2.3-0.1-2.8C138.2,117.9,138.6,117.3,140.1,117.3"></path> <path id="Tracé_16" d="M151.3,154.3c0-0.3-0.1-1.6-0.1-1.9c0-0.2,0.1-1.1,0.1-1.4c0-0.4,0.1-0.9,0.2-1.3c0.5-0.5,1.1-0.9,1.9-1 c0.3,0,0.4,0.1,1,0.5c0.3,0.2,0.6,0.3,0.9,0.4c0.9,0.5,2,0.8,3.1,0.8c1.6,0.1,2.9-1.1,3-2.7c0-0.1,0-0.2,0-0.3 c0-1.4-1-2.4-2.6-4c-0.4-0.4-0.8-0.8-1.2-1.2c-0.5-0.5-1-1.1-1.4-1.7c-0.5-0.6-1.1-1.1-1.6-1.8c-0.7-0.8-1.3-1.7-1.7-2.7 c-1.3-2.2-1.9-4.6-1.8-7.2c0-4,0.5-5.5,1.3-6.7c0.7-1.1,1.5-2.2,2.5-3.1c0.8-0.7,3.8-2.1,8.1-2.1c1.1,0,4.2,0.1,5,0.5 c1.1,0.6,1.1,1.3,1.1,4.3v2.9c0,0.4-0.1,0.9-0.3,1.3c-0.5,0.6-1.1,0.9-1.9,1c-0.3,0-0.4-0.1-1.1-0.4c-0.9-0.4-1.8-0.6-2.8-0.6 c-1.8,0-2.7,0.8-2.7,2.4c0,1,0.5,1.9,1.3,2.5c0.4,0.4,0.9,1,1.3,1.3c0.3,0.3,1.9,2.1,2.3,2.5c2.2,1.8,3.8,4.2,4.8,6.8 c0.9,2.2,1.3,4.7,1.2,7.1c0.2,5.1-3,9.6-7.8,11.2c-1.3,0.4-2.7,0.6-4.1,0.5c-1.7,0-3.4-0.3-5.1-0.7c-1.8-0.4-2.8-0.7-2.8-2.4 V154.3z"></path> <path id="Tracé_17" d="M174.3,131.8c0.2-2.7,0.4-6,2.2-9.1c0.7-1.4,1.8-2.6,3-3.6c1.9-1.6,4.3-2.4,6.8-2.3c1.5,0,3,0.1,4.4,0.4 c0.9,0.3,1.5,1.1,1.6,2c0,0.2-0.1,1.3-0.1,1.6c0,0.6,0.1,3.5,0.1,4.1c0,0.5,0,2.1-1.7,2.1c-0.4,0-0.7-0.1-1.1-0.2 c-0.5-0.1-1-0.2-1.5-0.2c-1.5-0.1-3,0.8-3.7,2.2c-0.7,1.5-0.8,8.4-0.8,9.6c0,6.7,0.7,8.7,2.1,10.1c0.9,0.8,2.1,1.1,4.1,1.1 c2.5,0,2.6,1,2.7,2.2c0,0.4-0.1,2.2-0.1,2.6c0,0.4,0.1,2.4,0.1,2.9c0.1,0.6-0.1,1.1-0.5,1.6c-0.5,0.7-1.4,1.1-2.3,1 c-0.3,0-0.6,0-0.8-0.1c-4-0.2-5.9-0.4-8.2-1.5c-1-0.5-1.7-0.8-3.6-3.3c-2.5-3.1-3.1-8.1-3.1-16.6 C174.1,136.6,174.2,134.2,174.3,131.8"></path> <path id="Tracé_18" d="M198.7,117.3c0.4,0,2.4,0.1,2.9,0.1s2.9-0.1,3.5-0.1c1.4,0,1.4,1.4,1.4,1.7c0,0.4-0.1,0.8-0.1,1.1 c-0.1,0.7-0.1,1.5-0.1,2.2c0,2,0,4-0.1,6.1c0,1,0.1,2.7,0.1,3.7c0,0.4-0.1,2-0.1,2.5c0,0.6,0.1,3.6,0.1,4.3s-0.1,3.8-0.1,4.6 c0,0.5,0.1,3.1,0.1,3.6c0,1-0.2,5.8-0.2,6.9c0,0.9,0.1,1.8,0.1,2.6c0.1,0.5,0.1,1,0.1,1.6c0,0.8-0.6,1.5-1.4,1.6 c-0.2,0.1-1.7,0-2,0c-0.7,0-4,0.1-4.7,0.1c-1.4,0-1.4-1.5-1.4-2.2v-0.1c0-0.8,0.1-5,0.1-5.9c0.1-1.9,0-4.8,0-6.6 c0-1.1,0.2-6.4,0.2-7.6c0-0.6-0.1-3.5-0.1-4.2c0-0.5,0.1-2.6,0.2-3.1c0-0.8-0.1-4.5-0.1-5.4c0-0.3,0.1-1.9,0.1-2.2 c0-0.4-0.1-2.3-0.1-2.8C196.8,117.9,197.2,117.3,198.7,117.3"></path> <path id="Tracé_19" d="M211.7,120.6c0,0.7,0.2,3.8,0.2,4.4c0,2.5-0.2,6.4-0.2,8.8c0,1.9,0.1,3.7,0.1,5.6c0,0.8-0.1,4.2-0.1,4.9 c0,0.8,0.1,5.2,0.2,7.1c0,0.6,0.1,1.2,0.1,1.9c0,0.6-0.2,3.4-0.2,4c0,0.5,0.1,1.1,0.5,1.5c0.5,0.7,1.4,1.2,2.3,1.1 c0.3,0,1.8-0.1,2.1-0.1c0.8-0.1,3.1-0.1,3.4-0.1c0.5,0,3,0.1,3.5,0c2.1,0,4.2-0.6,6-1.7c1.8-1.1,2.8-2.2,4.3-6.3 c0.5-1.4,0.8-2.9,0.9-4.4c0.1-1,0.1-2,0.2-2.9c0.1-0.7,0.1-1.3,0.2-2c0.2-1.5,0.2-3,0.2-4.6c0-0.8,0-1.8-0.1-2.6 c-0.1-0.7-0.4-5.8-0.5-6.3c-0.4-2.7-0.6-3.6-2.4-7.1c-1.5-2.7-4.4-4.4-7.5-4.3c-0.5,0-3,0.1-3.6,0.1h-3.1 c-0.5,0-2.8-0.1-3.3-0.1C212.2,117.4,211.7,118,211.7,120.6 M222.5,126.5c1.4,0,2.2,1.6,2.5,4c0,0,0.4,6.8,0.4,7 c0,0.4-0.1,2-0.1,2.4c0,0.3,0.1,1.7,0.1,2c0,1.8-0.1,3.6-0.4,5.4c-0.2,0.9-0.6,1.7-1.3,2.4c-0.4,0.3-0.9,0.4-1.4,0.5 c-1.3,0-1.3-1.3-1.3-2.1c0-0.5-0.1-2.5-0.1-2.9c0-0.7,0.1-3.7,0.1-4.3c0-0.3-0.1-1.4-0.1-1.7c0-0.4,0.1-0.8,0.1-1.3 c0-0.3-0.1-1.9-0.1-2.2c0-0.5,0.1-2.4,0.1-2.8v-4.8c-0.1-0.6,0.2-1.2,0.7-1.4C221.9,126.6,222.2,126.5,222.5,126.5"></path> <path id="Tracé_20" d="M238.9,133c0,0.5,0.1,2.7,0.1,3.1s-0.1,2.2-0.1,2.6c0,1.2,0.2,6.7,0.2,7.8c-0.1,1.8,0,3.7,0.5,5.5 c0.3,1.9,1.1,3.7,2.4,5.1c1.3,1.5,3.9,3.2,8.1,3.2c3.6,0,6.2-0.7,8.4-2.5c3.3-2.8,4.1-7.2,4.1-13.7c0-3-0.1-6-0.2-9 c-0.1-1.7-0.1-3.4-0.1-5.1c-0.1-3.2-0.2-6.7-2.4-9.8c-1-1.2-2.2-2.1-3.6-2.6c-1.8-0.6-3.7-0.9-5.6-0.9c-3.9,0-5.3,0.7-6.3,1.3 c-2,0.9-3.7,2.6-4.5,4.7C239.2,124.8,238.9,130.3,238.9,133 M250.7,125.3c2,0,2.1,2.3,2.2,3.3c0.1,2.1,0.2,5.7,0.2,7.7 c0,1.1-0.1,6-0.1,7c0,0.7,0.1,3.7,0.1,4.3c0,1.9-0.7,3.3-2.4,3.3c-1.5,0-1.9-1.7-2-2.5c-0.2-1-0.2-5.8-0.2-7.1 c0-2.4-0.1-6.2-0.1-8.5c-0.1-2,0-3.9,0.3-5.8C248.9,126,249.7,125.3,250.7,125.3"></path> <path id="Tracé_21" d="M265.8,154.3c0-0.3-0.1-1.6-0.1-1.9c0-0.2,0.1-1.1,0.1-1.4c0-0.4,0.1-0.9,0.2-1.3c0.5-0.5,1.1-0.9,1.9-1 c0.3,0,0.4,0.1,1,0.5c0.3,0.2,0.6,0.3,0.9,0.4c0.9,0.5,2,0.8,3.1,0.8c1.6,0.1,2.9-1.1,3-2.7c0-0.1,0-0.2,0-0.3 c0-1.4-1-2.4-2.6-4c-0.4-0.4-0.8-0.8-1.2-1.2c-0.5-0.5-1-1.1-1.4-1.7c-0.5-0.6-1.1-1.1-1.6-1.8c-0.7-0.8-1.3-1.7-1.7-2.7 c-1.3-2.2-1.9-4.6-1.8-7.2c0-4,0.5-5.5,1.3-6.7c0.7-1.1,1.5-2.2,2.5-3.1c0.8-0.7,3.8-2.1,8.1-2.1c1.1,0,4.2,0.1,5,0.5 c1.1,0.6,1.1,1.3,1.1,4.3v2.9c0,0.4-0.1,0.9-0.3,1.3c-0.5,0.6-1.1,0.9-1.9,1c-0.3,0-0.4-0.1-1.1-0.4c-0.9-0.4-1.8-0.6-2.8-0.6 c-1.8,0-2.7,0.8-2.7,2.4c0,1,0.5,1.9,1.3,2.5c0.4,0.4,0.9,1,1.3,1.3c0.3,0.3,1.9,2.1,2.3,2.5c1.1,0.9,2.1,2,2.9,3.2 c0.8,1.1,1.4,2.3,1.9,3.6c0.9,2.2,1.3,4.7,1.2,7.1c0.2,5.1-3,9.6-7.8,11.2c-1.3,0.4-2.7,0.6-4.1,0.5c-1.7,0-3.4-0.3-5.1-0.7 c-1.8-0.4-2.8-0.7-2.8-2.4L265.8,154.3z"></path> <path id="Tracé_22" d="M309.5,157.1c0,1-0.1,2.5-1.9,2.8c-0.4,0.1-4.7,0-5.6,0c-0.4,0-2,0.1-2.4,0.1c-0.5,0-2.6-0.2-3.2-0.2 c-0.7,0-4.4,0.2-5.2,0.2c-1.1,0.1-2.1-0.8-2.2-1.9c0-0.1,0-0.2,0-0.3c0-0.2,0.1-6.3,0.1-7.4c0-1.3-0.2-7.8-0.2-9.3 c0-0.5,0.1-3.1,0.1-3.7c0-1.7-0.1-3.4-0.1-5.1c0-0.7,0.1-3.7,0.1-4.5c0-0.5-0.1-3.1-0.1-3.7v-2.2c0-0.4-0.1-1.9-0.1-2.3 c-0.2-1,0.5-2,1.6-2.2c0.2,0,0.3,0,0.5,0c0.2,0,0.7,0,1.3,0.1c0.5,0,1.1,0.1,1.3,0.1c0.8,0,4.8-0.2,5.8-0.2 c0.7,0,3.8,0.1,4.5,0.1c0.7,0,1.4-0.1,2.1-0.1c2.3,0,2.6,1,2.6,2.8c0,0.6-0.1,1.2-0.1,1.8c0,0.2,0.1,1.6,0.1,1.9 c0,2-0.7,2.6-2.5,2.6c-0.5,0-1-0.1-1.5-0.1h-1c-0.5,0-1-0.1-1.4-0.1c-0.4,0-2,0.1-2.3,0.1c-0.5-0.1-1,0.2-1.3,0.7 c-0.2,0.4-0.2,0.6-0.2,2.3c0,0.3-0.1,1.5-0.1,1.8c0,1.3,0.4,1.8,2.2,1.8c0.7,0,2.6,0,4-0.1c0.5,0,1-0.1,1.4-0.1 c0.8-0.1,1.6,0.2,2.2,0.8c0.4,0.5,0.4,0.5,0.4,3.9c0,0.3,0.1,1.6,0.1,1.9c0,2.2-0.8,2.9-2.7,2.9c-0.5,0-2.9-0.2-3.5-0.2 c-3.1,0-3.4,0.5-3.6,1.3c-0.1,0.3,0.1,1.9,0.1,2.2c0,0.2-0.1,1.5-0.1,1.8c0,2.3,0.5,2.5,2,2.5c0.4,0,2.2,0.1,2.6,0.1 c0.2,0,1.5-0.1,1.8-0.1c4.1,0,4.4,0.2,4.4,3.6L309.5,157.1z"></path> <path id="Tracé_23" class="st2" d="M249.6,34.8h-0.4v-0.5h0.6C249.9,34.5,249.8,34.7,249.6,34.8 M248.4,41.1 c-0.9-0.7,0.7-1.8,0.4-2.5V37c0.5-0.1,0.5,0.8,0.8,1.3C248.6,39.2,251.3,42.2,248.4,41.1 M249.3,42.9l-0.5-0.5h0.5V42.9z M248.2,57.2c-0.2,0.4-0.6,0.2-0.9,0.2c-1-0.5,0-1.3,0-1.9C247.6,55.9,248.6,56.3,248.2,57.2 M247.3,51.8h0.2v0.6h-0.2V51.8z M156.4,80.3c-0.5-0.3-0.5,0.5-0.8,0.7v1.4h-0.4c-1-1.4,0.9-1.7,0.6-3.3c0.5-0.5,1.2-0.9,1.7-0.4 C157.9,79.7,156.9,80,156.4,80.3 M92.3,14.7h-0.2v-0.5h0.2V14.7z M90.6,17.4H90c-0.1-0.6,0.6-0.3,0.8-0.6 c0.1,0.1,0.3,0.3,0.5,0.2C91.3,17.3,90.9,17.4,90.6,17.4 M90.1,20c-0.2,0.6-0.9,0.9-1.5,1.1c-0.3-1.3,1.6-2.2,0.6-3.1 c0.7-0.2,1.4,0.1,1.8,0.6C91.1,19.2,90.2,19.4,90.1,20 M87.8,24.1c-0.6,0.3-0.7,1.5-1.5,1.4c-0.3-0.5-1.1-0.7-0.9-1.4 C86.4,24.1,88.5,21.5,87.8,24.1 M90,15.6c0.3,0,0.6,0.1,0.6,0.4H90V15.6z M82.4,34.2c-0.2-0.3-0.7-0.7-0.3-0.9 c0.3-0.2,0.8-0.6,1.3-0.5C83.7,33.7,83,34.4,82.4,34.2 M252.7,29.3c-0.4,0-0.9-0.2-1.1,0.2c-0.5,0.3-1.5,0.5-2-0.2l-1.4,1.3 c-1.5-2-3.6,1.7-4.8-0.8c0.1-1.9-0.1-3.9-0.6-5.7h-4.2c-1-1.8-2.8-0.1-4.3-0.6c-0.6-0.4-0.9-1-1.1-1.7c-1.5-0.5-2.4-1.9-4.2-1.4 c-2.6,0.5-0.4-3.6-3.2-2.5c-0.4,1.3-2.7,0-2.2,1.9c-0.6,1-1.8,1.5-3,1.4c0-1.7-0.3-3.4,1.5-4.4c0.4-0.8,0.1-1.7-0.6-2.1 c0,0-0.1,0-0.1-0.1l-0.6,0.6c-1,0.2-2.4-0.3-2.2-1.4l-0.6,0.7c-0.6-0.2-1.4,0.4-1.7-0.5c0-0.6-0.2-1.4,0.2-1.7 c-1.3,0.2-2.5,0.9-3.4,1.9c-2.2-0.5-1.1-2.9-2.6-3.7c-0.7,1.9-3.2,0-3.7,2c-0.7-0.5-1.1-1.2-2.2-1.5c-2.6,0.6-3.4,3.5-4.5,5.4 c-1.6,1-1.1,3.3-3.1,3.7c0.3,2-2.2,2.3-2.2,4.2c-0.5,0.5-1,0.9-1.7,1.1c-0.1,1.5-1.5,2.5-1.5,3.9c-0.2,0.2-0.3,0.5-0.6,0.5 c-2.1,1.4-3.1,4.1-4.2,6.3c-0.4,1.1-1.8,1.5-2.2,2.2c-0.6,1.5-2.4,2.2-1.9,3.9c-0.3,1.4-2,1.8-2.2,3.1c-1.9,1.7-2.3,4.3-3.9,6.4 c-0.8,0.6-2.4,1.1-1.8,2.5c-1.8,1-2.3,3.2-3.9,4.2c-0.2-0.6-0.5-1.2-0.6-1.7c0.2-0.2,0.4-0.6,0.6-0.5v-0.6c-1-0.6-1.4,1-2.2,1.5 c-0.6,1.5-1.7,3.3-1.9,4.7h0.4c0.8-0.5,1.3-1.4,1.4-2.4c0.5-0.5,0.9-1.2,1.7-0.9c0.3,0.5,0.8,0.7,0.9,1.1 c-2.7,0.3-1.8,3.7-4,4.4c1.4,2-1.9,2-1.7,3.7c0.9,1.5-1.7,0.9-1.3,2.5c-1.5,1.5-1.9,3.9-4.1,4.1c0.2,0.8-0.3,1.5-0.2,2.2 c-0.5,0.6-1.2,1.9-2.2,1.7c-1.6-1.4,0.1-3-0.5-4.7c2.9-1.6-2-2.5,0-4.6c2.1-1.6-1.5-3.5,1.5-4.5c-0.5,0.2-0.9-0.3-1.4-0.5 c0.5-0.7,0-2,0.7-2.6c-1.1-1.7,0.1-3.9-0.3-5.6c1.4-1.7-0.8-3.8,1.1-4.8l-1.7-2l1.7-1.9c-0.4-3,1.3-5.9,0.6-9 c1.7-1.1-0.4-2.2-0.2-3.5c1.4-1.8,0.1-3.9,1.1-5.9c-0.4-1-1.5-0.5-2.2-1.3c0.1-0.6-0.3-1.6,0.6-1.7c0.8-0.8-0.5-0.9-0.8-1.4 c-1.5-2.4-4.6-1.3-6.5-2.8c0.5-4.8-3.2-0.5-5.1-3.1c0.4,2.4-2.3,0.8-3,2.2c-1,0.5-1.4-0.6-2-1.1c0.3-2.5-2.5-3.3-2.2-5.8 c-1.5,0.2-2.3,1.2-3.2,2.2c-1.3-0.1-0.9,2.3-2.6,1.5c0.2,2.2-1.3-0.5-2.2,0.7c-0.1-0.5-0.1-1.1-0.8-1.4 c-0.5-1.4,1.3-0.4,1.3-1.3c-0.3-0.5-0.8-1.5-1.7-1.1l0.5,0.5c0.2,0.6-0.6,0.8-0.9,1.3c-0.8-1.7-2.9-0.4-3.7-2 c-0.9-1.1,1.2-0.6,0.9-1.7c-2.1-0.3-4.2,1-6,1.7c-0.6,0.5-0.6,1.8-1.7,1.5c-1.1-2.1,0.3-4.2,1.4-5.9c-1.4,0-2.1,1.4-3.6,0.9 c-0.8-0.6-1.4-1.4-2-2.2c0.5-0.3,1.3-0.8,1.3-1.5c-0.1-0.1-0.2-0.3-0.4-0.2c-0.3,0.7-0.6,1.3-1.1,1.9c-0.9-0.1-1.5-1.1-2-1.7 c-1.8-0.6-1.9,1.8-3.4,1.7c-2.1-1.1-0.4-3.9-2.4-5.2c-0.5,0-0.5,0.7-0.8,1.1c-0.5,0.8-1.5,1.3-2.4,1.1c-1.7-1.8-4.6-0.4-6.5,0.5 c0,0.4,0.1,0.8,0.5,1.1c0.1,0.8-0.5,1.4-1.1,1.9l0.2,0.3c0.3,0.5-0.4,0.6-0.6,1.1c-1.9-0.2-0.6,2.2-2.2,2.8 c-0.8,0.4-1.8,1.1-2.8,0.6c1.2-2.3,2.4-4.5,2.8-7c1.6-0.1,1.2-2.1,2.2-2.6l-0.4-0.4c-0.3-1.1,0.5-1.5,1.1-2.2V0.5 c-2.4-0.1-2.4,3.4-4.3,4.8c0.3,1.5-1.1,2.9-1.3,4.5c-1.5,0.2-1.3,2.1-2,2.8c-0.8,4-3.3,7.4-5.4,10.5c0,1.1-0.9,2.5,0,3.4 c0.3,0,0.5,0.1,0.7-0.2c0.6-0.4,1.8-1.4,2.3,0c0.1,1.5-1.7,2.3-2.3,3.3c0,0.5,1.1,0.5,0.8,1.3c-0.8,0.2-1.7,1.5-2.6,0.5 c-0.1-0.4,0.3-0.6,0.5-0.9l-0.6-0.5l0.5-0.8c-2.2-1.1-0.2,2.5-2.4,2.2c-0.3,2.1-2.9,3.7-1.7,5.9c0.5-0.7,1.7-1.4,2.2-2.5 c3.5,0.6-0.2,2.7,0.3,4.6c-1.3,0.5-2.6,1.5-4.2,0.8c-2.7-0.2-1.4,3.3-3.2,3.7c0.3,1.5-1.3,2.7-1.7,4.2c-0.9,1.6-0.4,3.3-1.7,4.5 c0.3,1.6-1.5,2.6-0.9,4.2c-0.9,0.3-0.2,2.1-1.3,2.2c0.5,1.7-1.9,2.7-2.2,4.4c-0.3,0.3-0.7,0.5-1.1,0.4c0.2,1.9-1.4,2.5-1.1,4.4 c-1.5,2-2.4,4.5-2.4,7c-1.1,1.2-1.3,2.7-2.3,3.9c0,2.1-2.2,3.5-2,5.3c1.7-0.3,3.5-0.5,5.2-0.5c0.7-0.5,2,0.3,2.6-0.6 c0.5,0.4,1.5-0.1,1.9,0.9c1.8-1,3.6,0,5.4-0.9c3.6,2.1,7.3-0.4,11.7,0.4c1.9,1.1,4-0.4,6.2,0.5c3.8-0.8,8.1-0.3,12.2-0.5 l0.6-0.4c-0.2-1.7,1.5-2.3,1.1-3.9c1.1-1.1,0.5-2.9,1.3-4.2c1.2-1.5,1.3-3.3,2.4-4.8c0,0.8,1.9,2.4,0,3.1 c-0.6,1,0.5,1.9,0.8,2.8c0.7,0.7-0.8,1.1-1.1,0.9c-0.5,2.2-3.2,3.7-2.8,6.1c0.3-0.3,1.2-0.2,0.9-0.9c1.6-0.7,0.3-2.7,2.2-3.4 c0.5,0.1,1.3-0.3,1.5,0.5c0.1,0.3-0.3,0.5-0.5,0.6c0.7,1.5-1.9,2.5,0.5,3.5c2,1.9,4.1-0.3,6.5,0.9c0.5-0.2,0.6-0.9,1.4-0.6 c1.4,1,3.5,0,5.2,0c0.4,0.3,0.7,0.8,1.3,0.6c0-0.2,0.2-0.4,0.3-0.5c6-0.4,12.1-0.3,18.2,0.3c1.8-0.2,3.5,0.4,5.2-0.5 c5.1,0,9.8-0.2,15.4,0.2v0.3c1,0.6,1.9-0.7,2.6,0c2.5,0.6,5.3-1.4,7.6,0c1.7-1,3.5,0,5.2-0.9c0.4-0.1,0.9,0.1,1.1,0.4 c1.8,0.5,3.5-0.1,5.1,0.5c1.8-0.8,4.1-0.3,6.1-0.5c0.6,1.5,1.7-0.5,2.5,0.6c1.3-1.2,2.7,0.6,4-0.6h14.9c1,0.9,2.3,0.1,3.3-0.3 c2.4,1.8,4.1-0.4,6.8,0.9c0.2-0.5,0.8-0.8,1.4-0.6c0.2,0.1,0.4,0.2,0.5,0.4c0.8,0.6,1.4-0.5,2.2-0.3c1.9-0.3,3,0.6,4.3,0 c4.7-0.3,9.4-0.3,14.1,0l0.9-0.5c-0.5-0.7,0.2-2-0.6-2.5c-0.5-1.3,0.4-2.5,1.3-3.3c-0.1-0.9,1.2-2.1-0.2-2.6 c-1-1.4,0.7-2.3,1.4-3.3c-1-1.4,0.3-3.6-1.1-4.8c0-1.8,0.5-3.7,0-5.4c1.5-0.9-0.3-3.5,1.4-3.9c0.5,0.4,0.7,1,1.3,1.1 c0,0.6-1,0.8-0.8,1.5c1.2,2.3-0.7,4.9,0.8,7.4c0.6,0,1.1-0.5,1.5-0.6c-0.3-2.2-0.2-4.5,0.5-6.7c-0.3-1-0.1-3.3-1.7-2.5 c0.3-1.4,1.2,0.3,1.4-1.3c0.2-1.7,0.6-3.9,0.3-5.3c0.5-4.3,0.5-9.2,1.3-12.8c-0.5-1.3-0.3-2.7,0.6-3.7 C251.9,32.5,254.1,31.4,252.7,29.3"></path> <path id="Tracé_24" class="st2" d="M161,64.9c0.7-0.5,0.3-1.3-0.3-1.7c0.3-0.4,0.9-0.5,0.7-1.1c-2.3-0.5-0.5,1.6-2.6,2.2 l1.1,1.1C160.4,65.5,160.7,65,161,64.9"></path> <path id="Tracé_25" class="st2" d="M102.7,3.8c0.5-0.2,1.2-0.4,0.9-1.1c-0.4-0.7-1.4-0.5-1.7,0.2 C101.2,3.6,102.3,3.7,102.7,3.8"></path> <path id="Tracé_26" class="st2" d="M119,5.8c-0.5-0.6-1.3,0.1-1.1,0.6C118.3,6.5,119,6.4,119,5.8"></path> <path id="Tracé_27" class="st2" d="M121.8,8.6h-0.6v0.6C121.4,9.1,122,9.2,121.8,8.6"></path> <rect id="Rectangle_1" x="209.8" y="8.8" class="st2" width="0.2" height="0.5"></rect> <path id="Tracé_28" class="st2" d="M128.3,13.6l1.4,0.2C129.7,13.3,128.4,12.8,128.3,13.6"></path> <path id="Tracé_29" class="st2" d="M177.3,45.4H177l0.3,0.5V45.4z"></path> <path id="Tracé_30" class="st2" d="M162.3,47.4c0.3-0.1,0.3-0.5,0.3-0.6h-0.7C161.9,47.1,162,47.5,162.3,47.4"></path> <path id="Tracé_31" class="st2" d="M162.6,49.4c-0.3-0.5-1-0.3-0.9,0.2C162,49.5,162.4,49.8,162.6,49.4"></path> <path id="Tracé_32" class="st2" d="M161.2,50.9l-0.2,1.4h0.5C162,51.8,161.3,51.3,161.2,50.9"></path> <path id="Tracé_33" class="st2" d="M173.6,51.1c-0.7,0.2-2.2,1.6-1.3,2.8C173.2,53.4,173.1,52.1,173.6,51.1"></path> <path id="Tracé_34" class="st2" d="M160.8,59.4l-0.8,1.1c0.5,0.1,1,0.8,1.5,0.2v-2.6h-0.7c-0.4,0.2-0.5,0.6-0.3,0.9 C160.5,59.2,160.6,59.3,160.8,59.4"></path> <path id="Tracé_35" class="st2" d="M165.8,62.9c-0.5,0-0.5,0.4-0.5,0.7C165.6,63.3,165.9,63.2,165.8,62.9"></path> <path id="Tracé_36" class="st2" d="M249.5,69.8c-0.1,0.8-0.1,2.8,0.9,2.8C249.8,71.9,251.5,69.9,249.5,69.8"></path> <rect id="Rectangle_2" x="250.4" y="79.7" class="st2" width="0.4" height="0.5"></rect> <path id="Tracé_37" class="st2" d="M250.7,81.4v1.1h0.3C250.9,82.1,251.2,81.5,250.7,81.4"></path> <rect id="Rectangle_3" x="247.3" y="83.2" class="st2" width="0.2" height="0.4"></rect> <path id="Tracé_38" class="st2" d="M148,193.9c-0.5,0.2-0.7-0.5-1.1-0.6C147.4,192.7,148,193.7,148,193.9 M180.6,165.3 c-1.1,0.2-2.4-0.4-3.3,0.5c-2.4-0.7-4.2,0.1-6.5-0.5c-2.2-0.5-5.1,1.3-7-0.6c-0.7,0.1-1.4,0-2,0.6c-0.5-0.1-1.4,0.5-1.7-0.4 c-1.9,2-2.9-1.4-5.1-0.3c-0.8,1.4-2.7,0.1-3.7,1.1c-2.4-0.8-4.3,0.3-6.5-0.5c-2-0.5-4.9,1.1-6.5-0.6c-2,0.9-3.9,0-5.9,0.9 c-3.5-1.9-7.7-0.1-11.7-0.6l-0.6-0.7c-0.4,0-0.8,0.1-1.1,0.5c-1.5-0.4-3-0.4-4.5,0c-1.4-0.5-2.7,1.1-4.2-0.2l-7.8,0.5 c1.3,5-3.4,13.9,4.1,15c2,2.5,5.4,2.3,8,3.7c0,2,2.3,3.1,3.5,4.5c1.2,0.5,2.8-1,3.9,0.4c0.2,1.9,2.9,1.5,3.3,3.6 c0.4,0,0.8-0.1,1.1-0.5c1.2-0.4,1.9,0.5,2.8,0.8c1.4,1.1,1.3-0.8,1.5-1.5c1.1-0.5,1.8,0.4,2.8-0.3c1.4,0.7,1.6,2.8,3.4,3.3 c2-0.4,2.9,2,4.6,1.7c2.4,0.9,0.5-2.3,2.6-2.2c1,0.2,0.7,1.5,1.7,1.8c1.6,0.9,2.8-0.7,4.1-1.4c3.2-4.1-2.9-1.3-3.9-3.9l1.4-1.3 c0.8-0.3,1.2,0.4,1.7,0.8c0.2,0,0.5,0.1,0.6-0.2l-0.2-0.3c-0.3-0.5,0.4-0.5,0.6-0.8c-0.4-1.4,0.1-3.4-1.7-3.9 c0.5-1.5,0-1.8-0.9-2.6l0.6-0.6c0.9,0.9,2.5-0.3,3.3,1.1c0.7-0.1,1.6,0.1,2.2-0.3c2.2,1.6,3.5-2.2,5.9-0.8 c1.4,2.3,4.7,0,6.3,1.9c0.8-1.3,1.4,0.6,2.5,0c1.5-1.5,1.8,1.6,3.5,0.3c1.1-0.7,2.1-1.8,1.7-3.3c0.8-2.6,3.5-3.3,4.3-5.9 c-0.1-1.7,0.6-3.1,0.6-4.8c0.4-1.2,1.4-2.1,2.6-2.4C180.3,166.8,181.1,165.8,180.6,165.3"></path> <path id="Tracé_39" class="st2" d="M72.2,165.8c-1.2,0-2.4-1-3.5,0c-2.8-0.9-6.1-0.2-9.3-0.5c-0.2-0.2-0.5-0.3-0.5-0.6 c-0.6,0-1.4-0.1-1.9,0.5c-1.6-0.5-3.6,1.2-4.8-0.5c-1,0.3-2.4-0.5-3.1,0.6c-2.5,0.1-4.6,0.2-6.9,0.5c-2.6-0.8-5.9-0.3-8.7-0.5 c-1.4-1.9-2.7,1.1-4.3-0.2c-1.3,2.4-2.9,4.8-2.9,7.5c-1.2,1.5-1.4,3.4-2.3,5c-2.8,1.3,0.2,5-2.6,6.3c-2.9,1.1-3.2,4.7-5.1,6.5 c0.1,1-0.4,2.2,0.6,2.9c1.5,2-0.2,3.5-0.3,5.6c2.2,1.2,4.6-0.6,6.3,1.5c1,1.1-1,1.9,0,3c1.2,0.5,2.5,0.2,3.4-0.6 c0.9-0.5,1.8,0.2,2.6,0.3c2.6,0.6,5.3-0.1,7.1-2c3.4,1-1.4,3.1,1.8,3.9c2.3,1,4.3,2.4,6,4.2c1.1,0.5,2.1-0.9,3.4-0.5 c0.7,0.4,2.3,0.8,1.4,2c0.5,0.5,1.1,1.2,1.9,1.1c1-1.3,2.4-1.2,3.7-1.8c1.8-1.6,2.5,1.2,3.7,1.8c1.2,0.3,1.2-1.2,1.7-1.8 c1.5-0.5,1.8-2.7,3.1-3.9c1.2-2.1-0.5-4.7,0.6-6.5c0.2-0.5-0.5-1-0.9-1.1c-0.3-1,0.5-1.5,1.1-2.2c1-1.1,0-1.6,0-2.8 c0.8-2,1.9-3.8,2.8-5.6c-0.7-1.6,1.4-2.1,0.7-3.7c0.9-1.1,0.6-2.6,1.9-3.5c0-0.6,0-1.2-0.2-1.7c0.3-1.3,2.4-2.4,1.7-3.5 c0.2-1.7-0.5-3.5,0.6-5C73.5,169.8,71.5,167.4,72.2,165.8"></path> <path id="Tracé_40" class="st2" d="M78.4,166.2c-1.3,2.4-2.1,5-2.5,7.6c-1.9,1-0.5,3.5-2.6,4.5l0.8,0.5 c0.2,0.4-0.3,0.5-0.4,0.6c0.8,1.5-1.6,2.7-0.3,4.2c4.1,0.1,0.1-4.4,3.5-5c1.3-1.7-0.5-3.1,1.3-4.6c-0.6-2.5,2.1-3.9,1.3-6.3 c0.2-0.8,1.4-1.1,1.1-2C80.3,165.2,78.3,164.8,78.4,166.2"></path> <path id="Tracé_41" class="st2" d="M180.7,169.3c0.1-0.2,0.3-0.3,0.3-0.5h-0.3V169.3z"></path> <path id="Tracé_42" class="st2" d="M195.3,174.8c-0.7,0.6-0.7,1.6-0.1,2.3c0,0,0,0,0.1,0.1C196,176.3,195.7,175.6,195.3,174.8"></path> <path id="Tracé_43" class="st2" d="M194,178.9v0.6c0.5,0.5,1.3,1,1.9,0.5v-0.8C195.7,177.6,194.7,179.2,194,178.9"></path> <path id="Tracé_44" class="st2" d="M194.6,181.7c0,0.8-1,1.8,0,2.5l0.8-0.9C195,182.8,195.4,182,194.6,181.7"></path> <path id="Tracé_45" class="st2" d="M157.8,183.7c-0.5,0.5-0.3,1.7,0.6,1.5c0.5-0.5-0.2-1.6,0.6-1.7v-0.7 C158.3,182.1,157.9,183,157.8,183.7"></path> <path id="Tracé_46" class="st2" d="M175.3,183.8c0.3-0.3,0.6-0.5,0.5-0.8C175.4,183,174.8,183.6,175.3,183.8"></path> <path id="Tracé_47" class="st2" d="M194.8,184.6h-0.2v0.8C195,185.2,194.8,184.8,194.8,184.6"></path> <rect id="Rectangle_4" x="194.4" y="185.8" class="st2" width="0.5" height="0.9"></rect> <path id="Tracé_48" class="st2" d="M148,193.9c0-0.3-0.6-1.3-1.1-0.6C147.3,193.5,147.5,194.1,148,193.9"></path> <path id="Tracé_49" class="st2" d="M69.6,194.4c-0.6,1.2-1.7,2.2-2.2,3.5c0,2-0.5,3.9-1.5,5.6c-0.4,2.4,0,4.4-0.8,7 c-0.2,0.4,0.4,0.1,0.4,0.4c1.4-0.6,2-2.3,2.2-3.7c-2.2-1,0.5-2.3,0-3.7c1.3-1.3,0.4-3.5,1.5-4.7 C68.8,197.4,70.5,195.5,69.6,194.4"></path> <path id="Tracé_50" class="st2" d="M243.1,169.7c-1.2,0-1,3.3-2.3,1.1c-0.5-1.1,0.8-1.5,1.1-2.4 C242.2,169,243.6,168.8,243.1,169.7 M243,180.6c-0.5-0.4-2.6,0.2-2.3-1.4c0.4-0.1,0.8-0.8,1.3-0.3l-0.4,0.9 c0.5,0.2,0.9,0.5,1.5,0.5L243,180.6z M241,182.4h-0.2v-0.5h0.2V182.4z M239.9,177.3c1.7-1.1-0.6-2.3,1.4-3.3h0.2 c0.6,1.1-0.4,2.7,0.9,3.5c-0.2,0.5-0.5,0.3-0.9,0.6C241,177.9,240.3,177.9,239.9,177.3 M245,171.5c0.8-1.9-0.6-3.4-0.9-5.1 c-1.1-0.5-1.4,0.9-2.2,1.4c-1.7,0.3-1.4-1.6-2.3-2.5c-1.2,0.2-2.6-0.4-3.5,0.5c-2.4-0.7-4.2,0.1-6.5-0.5c-2-0.5-4.8,1.1-6.5-0.6 c-1.5-0.2-3,1.3-4.3,0.5c-1.8,1.7-2.6-1.5-4.8-0.5c-0.9,1.4-2.8,0.1-3.9,1.1c-1.7-0.5-3.3,0.1-4.8-0.5c-2.1,0.2-4.2-0.4-6.2,0.5 c0,0.5-0.2,1,0.2,1.4c-1.8,1.1,0.8,2.5-0.6,3.6c-2.4,1.3,0.8,2.4-0.2,4.2c1,1.4-0.6,2.8-0.7,4.4c1.1,0.6-0.1,1.5-0.2,2.2 c0.9,0.5,0,1.6,1.1,2c-0.1,0.3,0.2,0.6-0.2,0.8c-0.2,0.9-1.6,2.2-0.5,3.3c-0.2,2-1.4,3.6-1.5,5.7c0.8,1.1,0.3,3,0.5,4.1 c0.1,1.5-0.3,3-1.1,4.4l-0.6-0.6c-0.5,0.7-1.3-0.5-1.1,0.6c0.4,0,0.7,0,1.1-0.2c0.6,0.3,0.3,1,0.4,1.5c1.1,1.1,2.3-0.2,3.5-0.3 c1.3,0.6-0.5,1.5,0.2,2.2l3.1,0.5c-0.9,2.8,3,0.9,4.1,2.4c2.4-2.4,5.6,0.1,8.3,0.3v-2.2c0.3-0.8,0.9-1.4,1.7-1.5 c1.9,0.5,4.6-1.2,5.6,1.5c2.8,0.8,5.8,0.4,8.2-1.1l-0.4-5c0.5-1.3,0.9,0.5,1.7,0c0.5-1.3,0.3-3.4,2.2-3.5 c0.5,1.6,1.8-0.4,2.6,0.9l-1.5,1.1c-0.3,0.5,0.3,0.9,0.6,1.3c0.5,0.6,0.7-0.3,1.1-0.5c-0.4-2.8,2.4-3.4,3.4-5.4 c-0.7-0.5-1.2-1.3-1.3-2.2c1-1.2-1.3-2.7,1.1-3.6c-0.6-1.5,0.1-2.9,1.1-4c0.5-0.5,1.3-0.9,1.7,0c-0.8,1.8-0.1,3.4-0.6,5.3 c0.7,0.6,0.4,1.7,1.1,2.4c-0.6,0.4-0.5,1-1.1,1.4c0.2,0.8-0.5,2.7,0.6,3.5c0,0.9-0.1,1.8-0.4,2.6c0.4,0.5,1.1,0.9,1.5,0.5 c1.1-1.7-0.3-3.5,1.1-5c-1-0.5,0.1-1.2,0-1.8c-0.8-1.5-0.1-3.5-0.6-5.5c2.3-0.9-0.8-2.3,0.6-3.4c-0.2-1.3,0.5-2.8-0.6-3.7 C243.3,177.2,245.3,174.3,245,171.5"></path> <path id="Tracé_51" class="st2" d="M242.8,202v-0.5h-0.3L242.8,202z"></path> </g> </g> </g> </g> </svg> 