<?xml version="1.0" encoding="UTF-8"?> <!-- Generator: Adobe Illustrator 23.0.1, SVG Export Plug-In . SVG Version: 6.00 Build 0) --> <svg xmlns="http://www.w3.org/2000/svg" xmlns:xlink="http://www.w3.org/1999/xlink" version="1.1" id="Groupe_50" x="0px" y="0px" viewBox="0 0 119.1 81.5" style="enable-background:new 0 0 119.1 81.5;" xml:space="preserve"> <style type="text/css"> .st0{fill:#FFFFFF;} </style> <path id="Tracé_1" class="st0" d="M22,36.7c-0.1-0.3-0.2-0.5-0.3-0.8c-0.1-0.2-0.2-0.5-0.2-0.7c0-0.6,0.5-0.6,0.7-0.6 c0.1,0,0.6,0,0.8,0c0.1,0,0.3,0,0.4,0c0,0,0.1,0,0.2,0c0.1,0,0.2,0,0.2,0s0.1,0,0.3,0s0.2,0,0.3,0c0.1,0,0.2,0,0.3,0.1 c0.2,0.2,0.3,0.4,0.4,0.6c0,0.1,0.1,0.4,0.1,0.4s0.1,0.1,0.1,0.2c0.1,0.2,0.1,0.5,0.2,0.7c0,0.1,0,0.3,0.1,0.4c0,0.2,0.3,1,0.3,1.1 c0,0.1,0,0.2,0.1,0.3c0,0.4,0.1,0.5,0.2,0.5c0,0,0.1-0.2,0.1-0.2c0,0,0.1-0.6,0.1-0.6c0-0.1,0.1-0.1,0.1-0.2s0.1-0.4,0.2-0.5 c0.1-0.2,0.1-0.4,0.1-0.6c0.1-0.3,0.2-0.5,0.3-0.8c0-0.1,0-0.3,0.1-0.4c0-0.3,0.1-0.6,0.3-0.9c0.1-0.2,0.3-0.2,0.5-0.2 c0,0,0.1,0,0.2,0s0.2,0,0.3,0c0.1,0,0.2,0,0.3,0c0.1,0,0.2,0,0.3,0c0.1,0,0.3,0,0.4,0h0.5c0.2,0,0.7,0,0.7,0.5 c0,0.3-0.1,0.6-0.2,0.9c-0.1,0.2-0.2,0.5-0.2,0.8c0,0.2-0.1,0.5-0.1,0.7c-0.1,0.2-0.2,0.5-0.3,0.7c0,0.2-0.1,0.3-0.1,0.5 c0,0.1-0.3,0.9-0.4,1c0,0.1,0,0.2-0.1,0.3s-0.1,0.3-0.2,0.4c-0.1,0.2-0.2,0.4-0.2,0.6c0,0.1,0,0.2-0.1,0.3c0,0.1-0.1,0.3-0.1,0.4 c0,0.1-0.1,0.3-0.1,0.4c-0.1,0.1-0.1,0.3-0.2,0.4S28.1,42.8,28,43c-0.1,0.2-0.2,0.3-0.6,0.4c-0.1,0-0.3,0-0.4,0c-0.1,0-0.6,0-0.7,0 c-0.1,0-0.3,0-0.4,0c-0.1,0-0.2,0-0.3,0c-0.1,0-0.2,0-0.3,0c-0.1,0-0.3,0-0.4,0s-0.2,0-0.4,0c-0.4,0-0.7-0.2-0.8-0.8 c-0.1-0.2-0.1-0.4-0.2-0.6c0-0.1-0.1-0.2-0.1-0.3c0-0.1-0.1-0.3-0.1-0.4s-0.1-0.3-0.1-0.4c0-0.2-0.1-0.3-0.1-0.5 c0-0.2-0.1-0.5-0.2-0.7c0-0.1-0.1-0.2-0.1-0.3s-0.1-0.2-0.1-0.2c-0.2-0.4-0.3-0.8-0.4-1.2C22.2,37.5,22.1,37.1,22,36.7"></path> <path id="Tracé_2" class="st0" d="M30,42.8c0,0.5,0.5,0.5,0.6,0.5c0.1,0,0.4,0,0.4,0s0.3,0,0.4,0c0.1,0,0.5,0,0.6,0s0.5,0,0.6,0 c0.2,0,0.4-0.1,0.5-0.3c0-0.1,0.2-0.4,0.2-0.5c0.1-0.2,0.3-0.2,0.6-0.2c0.1,0,0.7,0.1,0.8,0.1c0.1,0,0.1,0,0.2,0 c0.1,0,0.4-0.1,0.5-0.1c0.3,0,0.4,0.1,0.7,0.6c0.2,0.3,0.2,0.4,0.6,0.4c0,0,0.2,0,0.3,0s0.2,0,0.3,0c0.1,0,0.2,0,0.3,0 c0.1,0,0.7,0,0.8,0c0.2,0,0.4,0,0.6,0c0.4,0,0.6-0.4,0.6-0.7c0-0.1,0-0.1,0-0.2c0,0-0.1-0.5-0.1-0.5s-0.1-0.2-0.1-0.3 c0-0.1-0.1-0.2-0.1-0.3c0-0.1-0.1-0.3-0.1-0.4s-0.1-0.3-0.1-0.4c0-0.1-0.1-0.2-0.1-0.3c0-0.1-0.1-0.2-0.1-0.4 c-0.1-0.2-0.1-0.4-0.2-0.6c-0.1-0.3-0.2-0.7-0.2-1c0-0.3-0.1-0.6-0.2-0.9c-0.1-0.3-0.2-0.6-0.3-0.8c0-0.1-0.1-0.3-0.1-0.4 c0-0.1,0-0.2-0.1-0.2c-0.1-0.2-0.1-0.5-0.2-0.7c-0.1-0.1-0.2-0.3-0.3-0.4c-0.2-0.1-0.4-0.1-0.6-0.1c-0.1,0-0.3,0-0.4,0 c-0.1,0-0.7,0-0.8,0c0,0-0.3,0-0.3,0c-0.2,0-0.6,0-0.8,0c-0.1,0-0.8,0-0.9,0c-0.2,0-0.5,0-0.7,0.2c-0.2,0.1-0.3,0.3-0.3,0.5 c-0.1,0.1-0.1,0.3-0.1,0.4s-0.1,0.3-0.1,0.4c0,0.1-0.4,0.9-0.4,1.1c0,0.1-0.1,0.3-0.1,0.4c0,0.1-0.1,0.2-0.1,0.3 c-0.1,0.3-0.2,0.5-0.3,0.8c-0.1,0.3-0.1,0.7-0.2,1.1c-0.1,0.2-0.2,0.5-0.2,0.7c0,0.1-0.1,0.3-0.1,0.4c-0.1,0.4-0.2,0.8-0.3,1.2 C30,42.4,30,42.6,30,42.8 M34.7,37.6c0.2,0,0.2,0.1,0.2,0.2c0,0.1,0.1,0.3,0.1,0.4c0,0.1,0.1,0.2,0.1,0.2c0,0.1,0,0.3,0.1,0.4 c0,0.1,0,0.2,0.1,0.3c0,0,0,0.1,0,0.1c0,0.2-0.1,0.3-0.3,0.3c0,0-0.3,0-0.3,0c-0.1,0-0.3,0-0.4,0c-0.1,0-0.2-0.2-0.2-0.3 c0-0.3,0.1-0.5,0.2-0.8c0-0.2,0.1-0.4,0.2-0.6C34.5,37.7,34.6,37.6,34.7,37.6"></path> <path id="Tracé_3" class="st0" d="M40.2,39c0-0.2,0-0.4,0-0.7c0-0.2,0-0.4,0-0.6s0-0.4,0-0.6c0-0.1,0-0.6,0-0.7 c0-0.2-0.1-1.1-0.1-1.1c0-0.2,0-0.3,0.1-0.5c0.1-0.2,0.3-0.2,0.5-0.2c0.2,0,0.4,0.1,0.6,0.1c0.1,0,0.1,0,0.2,0s0.3,0,0.5,0 c0.2,0,0.5,0,0.5,0c0.6,0,0.7,0.1,0.9,0.3c0.1,0.1,0.2,0.3,0.2,0.5c0,0.2-0.1,1-0.1,1.1c0,0.2,0.1,1.2,0.1,1.4c0,0.1,0,0.1,0,0.2 c0,0.3,0,0.5,0,0.8c0,0.1,0,0.1,0,0.2v1c0,0.1,0,0.2,0,0.3c0,0.1,0,0.4,0,0.5c0,0,0,0.2,0,0.2c0,0,0,0.7,0,0.8c0,0.2,0,0.4,0,0.6 c0,0.1,0,0.3,0,0.3c0,0.4-0.3,0.6-0.7,0.6c-0.1,0-0.7,0-0.8,0s-0.9,0-1,0c-0.5,0-0.9,0-0.9-0.6c0-0.1,0-0.5,0-0.5V41 c0-0.1,0-0.3,0-0.4c0,0,0-0.5,0-0.5s0-0.5,0-0.7L40.2,39z"></path> <path id="Tracé_4" class="st0" d="M50.3,36.1c0-0.1,0-0.3,0-0.4c0-0.1,0-0.4,0-0.4c0-0.1,0.1-0.3,0.2-0.4c0.1-0.2,0.3-0.2,0.6-0.2 c0.1,0,0.5,0,0.5,0l0.4,0c0.2,0,0.5,0,0.7,0c0.2,0,0.4,0,0.6,0.1c0.3,0.1,0.4,0.4,0.4,0.7c0,0,0,0.5,0,0.5c0,0.1-0.1,0.6-0.1,0.7 s0,0.8,0,0.9c0,0.3,0,0.5,0,0.8c0,0.4,0,0.5,0,0.6c0,0.2,0.1,1,0.1,1.2c0,0.2,0,1.5,0,1.7c0,0.1,0,0.2,0,0.3c0,0.1,0,0.3,0,0.4 c0,0.4-0.3,0.6-0.6,0.6c-0.1,0-0.5,0-0.6,0c-0.1,0-0.4,0-0.7,0c-0.1,0-0.2,0-0.3,0c-0.7,0-0.7-0.1-0.9-0.2c-0.1-0.1-0.1-0.1-0.2-0.2 c-0.2-0.2-0.3-0.3-0.5-0.5c-0.1-0.2-0.2-0.4-0.3-0.5c-0.1-0.1-0.5-0.6-0.5-0.7c0,0-0.1-0.1-0.1-0.2c0-0.1-0.1-0.1-0.2-0.2 c0-0.1-0.1-0.1-0.1-0.2c0-0.1-0.1-0.1-0.2-0.1c-0.2,0-0.2,0.3-0.2,0.4c0,0.1,0,0.3,0,0.4c0,0.1,0,0.8,0,0.9v0.1c0,0.1,0,0.4,0,0.5 c0,0.1,0,0.1,0,0.2c-0.1,0.2-0.3,0.3-0.5,0.3c-0.1,0-0.4,0-0.4,0s-0.5,0-0.6,0s-0.6,0-0.7,0c-0.1,0-0.6,0-0.7,0 c-0.3,0-0.6-0.2-0.6-0.5c0,0,0,0,0-0.1c0-0.1,0-0.2,0-0.3c0-0.1,0-0.3,0-0.4c0-0.2,0.1-0.4,0.1-0.6c0-0.1,0-0.2,0-0.3 c0-0.1,0-0.8,0-1c0-0.1,0-0.8,0-0.9c0-0.2,0-1.4,0.1-1.8c0-0.3,0-0.5,0-0.8c0-0.3,0-0.5-0.1-0.8c0-0.2,0-0.3,0-0.5 c0-0.2,0.1-0.4,0.1-0.6c0.1-0.2,0.3-0.2,0.6-0.2h0.2c0,0,0.1,0,0.1,0h0.1c0.2,0,0.8,0,1,0c0.2,0,0.3,0,0.5,0c0.3,0,0.6,0.1,0.8,0.3 c0.2,0.2,0.3,0.5,0.4,0.7c0.1,0.1,0.1,0.2,0.2,0.3c0.1,0.1,0.2,0.3,0.3,0.4c0,0.1,0.1,0.2,0.2,0.3c0.1,0.1,0.1,0.1,0.1,0.2 c0,0.1,0.1,0.1,0.1,0.2c0.2,0.2,0.2,0.3,0.4,0.3c0.1,0,0.2-0.1,0.2-0.2c0,0,0,0,0,0c0,0,0-0.4,0-0.5L50.3,36.1z"></path> <path id="Tracé_5" class="st0" d="M54.5,39.9c0-0.1,0-0.3,0-0.4c0-0.2-0.1-0.5-0.1-0.7c0-0.4,0-0.8,0.1-1.1 c0.1-0.2,0.2-0.4,0.2-0.6c0.1-0.2,0.1-0.4,0.2-0.5c0.1-0.2,0.2-0.3,0.3-0.4c0.2-0.3,0.5-0.6,0.8-0.8c0.4-0.4,0.9-0.6,1.4-0.6 c0.4-0.1,0.8-0.2,1.1-0.1c0.5,0,1,0,1.5,0.1c0.1,0,0.3,0.1,0.4,0.3c0,0.1,0,0.3,0,0.4c0,0.1,0,0.7,0,0.8v0.1c0,0.1,0.1,0.8,0.1,1 c0,0.7-0.3,0.7-0.5,0.7c-0.1,0-0.4,0-0.5,0s-0.4,0-0.4,0l-0.2,0h-0.1c-0.2,0-0.5,0.1-0.6,0.2c-0.3,0.2-0.4,0.5-0.4,0.8 c0,0.1,0,0.2,0,0.3c0.1,0.2,0.1,0.3,0.2,0.5c0.3,0.2,0.6,0.4,1,0.4c0.2,0,0.6-0.1,0.8-0.1h0.1c0.6,0,0.7,0.2,0.7,0.8 c0,0.1,0,0.6,0,0.7c0,0.2,0,0.4,0,0.7c0,0.1,0,0.3,0,0.4c0,0.1,0,0.3-0.1,0.4c-0.1,0.2-0.4,0.3-0.6,0.4c-0.1,0-0.5,0-0.6,0 c-0.2,0-0.4,0-0.7,0c-0.2,0-0.5,0-0.7-0.1c-0.2-0.1-0.5-0.1-0.7-0.1c-0.2,0-0.4-0.1-0.6-0.2c-0.4-0.2-0.8-0.4-1.1-0.8 c-0.1-0.1-0.2-0.3-0.3-0.4c-0.1-0.1-0.1-0.2-0.2-0.3C54.7,41.1,54.5,40.5,54.5,39.9"></path> <path id="Tracé_6" class="st0" d="M65.2,38c0,0,0,0.2,0,0.2s0,0.2,0,0.2c0,0.3,0.2,0.4,0.4,0.4c0.2,0,0.4,0,0.6-0.1 c0.2,0,0.4-0.1,0.5-0.3c0.1-0.1,0.2-0.2,0.2-0.4c0-0.2-0.1-0.4-0.3-0.5c-0.1-0.1-0.3-0.1-0.5-0.1c-0.1,0-0.1,0-0.2,0 c-0.2,0-0.2,0-0.2,0C65.2,37.4,65.2,37.6,65.2,38 M61.8,36c0-0.1,0-0.4,0-0.5c0-0.2,0-0.3,0.1-0.4c0.2-0.3,0.5-0.4,0.8-0.4 c0.1,0,0.2,0,0.3,0c0.1,0,0.5,0,0.6,0c0.1,0,0.3,0,0.4,0c0,0,0.2,0,0.3,0c0.1,0,0.9-0.1,1-0.1c0.3,0,0.5,0.1,0.8,0.1 c0.1,0,0.5,0,0.6,0c0.4,0,0.7,0.1,1.1,0.1c0.2,0,0.4,0.1,0.6,0.2c0.2,0.1,0.4,0.3,0.6,0.4c0.1,0.1,0.2,0.2,0.3,0.3 c0,0.1,0.1,0.1,0.1,0.2s0.1,0.2,0.1,0.2c0,0.1,0.1,0.1,0.1,0.2c0.2,0.4,0.4,0.9,0.4,1.3c0,0.1,0,0.3-0.1,0.4c0,0.3-0.1,0.7-0.3,1 c-0.2,0.5-0.6,0.9-1.1,1c-0.1,0-0.2,0.1-0.2,0.2c0,0.1,0.1,0.2,0.2,0.2c0.1,0,0.2,0.1,0.4,0.1c0.1,0,0.2,0,0.3,0c0,0,0.3,0,0.3,0 c0.2,0,0.6,0,0.6,0.7c0,0.1,0,0.6,0,0.7c0,0.2,0,0.5,0,0.7c0,0.7-0.3,0.7-0.6,0.7c0,0-0.2,0-0.3,0c-0.2,0-0.4,0-0.5,0 c-0.3,0-0.6,0-0.8-0.1c-0.4-0.2-0.8-0.4-1.2-0.7c-0.1-0.1-0.2-0.1-0.3-0.2c-0.1,0-0.6-0.4-0.6-0.5c-0.1,0-0.2,0-0.3-0.1 c-0.2,0-0.3,0.2-0.3,0.3c0,0.1,0,0.2,0,0.3c0,0.1,0,0.1,0.1,0.2c0,0,0,0.1,0,0.1c0,0.3-0.1,0.5-0.4,0.5c0,0-0.1,0-0.1,0 c-0.1,0-0.4,0-0.5,0c-0.1,0-0.6,0-0.7,0c-0.1,0-0.2,0-0.2,0c-0.1,0-0.4-0.1-0.5-0.1s-0.5,0.1-0.6,0.1c-0.3,0-0.5-0.2-0.6-0.5 c0,0,0-0.1,0-0.1c0-0.1,0-0.2,0-0.2c0-0.2,0-0.4,0-0.6c0-0.2,0-0.7,0-0.8c0,0,0-0.4,0-0.4c0-0.2,0-0.3,0-0.5c0-0.1,0-0.3,0-0.4 c0-0.1,0-0.6,0-0.7v-1.3c0,0,0-0.2,0-0.2v-0.2c0-0.1,0-0.7-0.1-0.8L61.8,36z"></path> <path id="Tracé_7" class="st0" d="M76.4,37.8c0.1,0,0.5,0,0.6,0c0.5,0,0.6,0.1,0.7,0.5c0,0.1,0,0.3,0,0.4c0,0.1,0,0.7,0,0.8 c0,0.4-0.2,0.5-0.4,0.5c-0.1,0-0.2,0-0.3,0c-0.1,0-0.1,0-0.2,0l-1.2,0c-0.1,0-0.5,0-0.6,0c-0.1,0-0.5,0-0.5,0.3 c0,0.4,0.5,0.4,0.8,0.4c0.1,0,0.2,0,0.4,0c0.2,0,0.4,0,0.5,0c0.1,0,0.4,0,0.5,0c0.2,0,0.4,0,0.5,0c0.3,0,0.4,0.1,0.4,0.1 c0.2,0.2,0.2,0.4,0.2,0.6c0,0.1,0,0.3,0,0.4c0,0.1,0,0.6,0,0.7c0,0.7-0.1,0.9-0.6,0.9c-0.1,0-0.7,0-0.8,0c-0.1,0-0.2,0-0.5,0 c-0.2,0-0.4,0-0.7,0c-0.1,0-0.3,0-0.5,0c-0.5,0-1,0-1.5,0c0,0-0.2,0-0.4,0c-0.3,0-0.5,0-0.8,0c-0.2,0-0.3,0-0.4,0 c-0.6,0-0.6-0.3-0.6-0.6c0-0.1,0-0.5,0-0.5c0-0.2,0-1.2,0-1.4c0-0.1,0-0.6,0-0.8c0-0.2,0-0.4,0-0.6c0-0.2,0-0.4,0-0.6 c0,0,0-0.3,0-0.3c0-0.1,0-0.2,0-0.3c0-0.1,0-0.7,0-0.8c0-0.2,0-0.5,0-0.8c0-0.1,0-0.2,0-0.4c0-0.2,0-0.4,0-0.6c0-0.1,0-0.2,0-0.4 c0-0.7,0.4-0.8,0.8-0.8c0.1,0,0.4,0,0.5,0c0.2,0,0.5,0,0.7,0c0.1,0,0.6,0,0.7,0c0.1,0,0.2,0,0.2,0c0,0,0.1,0,0.1,0c0,0,0.1,0,0.1,0 h0.1c0.1,0,0.1,0,0.2,0c0.1,0,0.1,0,0.2,0c0,0,0.1,0,0.1,0h0.1c0,0,0.1,0,0.1,0c0.1,0,0.1,0,0.1,0c0.1,0,0.1,0,0.2,0 c0,0,0.6-0.1,0.6-0.1c0,0,0.3,0,0.3,0h0.3c0,0,0.2,0,0.3,0c0.1,0,0.2,0,0.3,0c0.3,0.2,0.3,0.6,0.3,0.7c0,0.1,0,0.3,0,0.5 c0,0.1,0,0.6,0,0.7c0,0.2,0,0.3-0.1,0.5c-0.1,0.1-0.2,0.2-0.3,0.2c0,0-0.3,0-0.3,0s-0.4,0-0.5,0S76,37.2,76,37.2s-0.4,0-0.5,0 c-0.1,0-0.3,0-0.4,0c-0.2,0-0.5,0-0.5,0.3c0,0.4,0.2,0.4,0.9,0.4c0.1,0,0.4,0,0.5,0c0,0,0.2,0,0.3,0L76.4,37.8z"></path> <path id="Tracé_8" class="st0" d="M81.5,37.8c0-0.4,0-0.4,0-0.5s0-0.8,0-1c0-0.1,0-0.5,0-0.6c0,0,0-0.2,0-0.2 c0-0.3,0.1-0.8,0.7-0.8c0.1,0,0.8,0.1,0.9,0.1c0.1,0,0.7-0.1,0.8-0.1c0.8,0,0.9,0.4,0.9,0.9c0,0.2,0,0.5,0,0.7v0.2 c0,0.1,0,0.4,0,0.5V37c0,0.2-0.1,0.4-0.1,0.6v0.1c0,0.1,0,0.7,0,0.9c0,0.1,0,0.5,0,0.6c0,0.2,0,0.4,0.1,0.6c0.1,0.1,0.2,0.2,0.4,0.2 c0.1,0,0.5-0.1,0.6-0.1c0.1,0,0.3,0,0.4,0c0,0,0.2,0,0.2,0c0.4,0,0.6,0.3,0.6,0.7c0,0.1,0,0.2,0,0.3c0,0.1,0,0.7,0,0.9 c0,0.1,0,0.2,0,0.4c0,0.1,0,0.2,0,0.3c0,0,0,0.8-0.6,0.8c-0.1,0-0.6-0.1-0.8-0.1c-0.2,0-0.5,0-0.7,0.1c-0.2,0-0.6,0-0.7,0 s-0.4,0-0.5,0h-0.2c0,0-0.3,0-0.4,0c-0.2,0-0.3,0-0.5,0c-0.2,0-0.4,0-0.6,0c-0.8,0-0.8-0.5-0.8-0.8c0-0.2,0-0.3,0-0.5 c0-0.1,0-0.4,0-0.4c0-0.1,0-0.7,0-0.9c0-0.1,0-0.2,0-0.3c0-0.2-0.1-1.1-0.1-1.3C81.5,39,81.5,38.1,81.5,37.8"></path> <path id="Tracé_9" class="st0" d="M87.7,42.8c0,0.5,0.5,0.5,0.6,0.5c0.1,0,0.4,0,0.4,0c0,0,0.3,0,0.4,0c0.1,0,0.5,0,0.6,0 s0.5,0,0.6,0c0.2,0,0.4-0.1,0.5-0.3c0-0.1,0.2-0.4,0.2-0.5c0.1-0.2,0.3-0.2,0.6-0.2c0.1,0,0.7,0.1,0.8,0.1c0.1,0,0.1,0,0.2,0 c0.1,0,0.4-0.1,0.5-0.1c0.3,0,0.4,0.1,0.7,0.6c0.2,0.3,0.2,0.4,0.6,0.4c0,0,0.2,0,0.3,0s0.2,0,0.3,0s0.2,0,0.3,0c0.1,0,0.7,0,0.8,0 c0.2,0,0.4,0,0.5,0c0.4,0,0.6-0.4,0.6-0.7c0-0.1,0-0.1,0-0.2c0,0-0.1-0.5-0.1-0.5s-0.1-0.2-0.1-0.3c0-0.1-0.1-0.2-0.1-0.3 c0-0.1-0.1-0.3-0.1-0.4s-0.1-0.3-0.1-0.4c0-0.1-0.1-0.2-0.1-0.3c0-0.1-0.1-0.2-0.1-0.4c-0.1-0.2-0.1-0.4-0.2-0.6 c-0.1-0.3-0.2-0.7-0.2-1c0-0.3-0.1-0.6-0.2-0.9c-0.1-0.3-0.2-0.6-0.3-0.8c0-0.1-0.1-0.3-0.1-0.4c0-0.1,0-0.2-0.1-0.2 c-0.1-0.2-0.1-0.5-0.2-0.7c-0.1-0.1-0.2-0.3-0.3-0.4c-0.2-0.1-0.4-0.1-0.6-0.1c-0.1,0-0.3,0-0.4,0c-0.1,0-0.7,0-0.8,0 c0,0-0.3,0-0.3,0c-0.2,0-0.6,0-0.8,0c-0.1,0-0.8,0-0.9,0c-0.2,0-0.5,0-0.7,0.2c-0.2,0.1-0.3,0.3-0.3,0.5c0,0.1-0.1,0.3-0.1,0.4 c0,0.1-0.1,0.3-0.1,0.4c0,0.1-0.4,0.9-0.4,1.1c0,0.1-0.1,0.3-0.1,0.4c0,0.1-0.1,0.2-0.1,0.3c-0.1,0.3-0.2,0.5-0.3,0.8 c-0.1,0.3-0.1,0.7-0.2,1.1c-0.1,0.2-0.2,0.5-0.2,0.7c-0.1,0.1-0.1,0.3-0.1,0.4c-0.1,0.4-0.2,0.8-0.3,1.2 C87.7,42.4,87.7,42.6,87.7,42.8 M92.4,37.6c0.2,0,0.2,0.1,0.2,0.2c0,0.1,0.1,0.3,0.1,0.4c0,0.1,0.1,0.2,0.1,0.2c0,0.1,0,0.3,0.1,0.4 c0,0.1,0.1,0.2,0.1,0.3c0,0,0,0.1,0,0.1c0,0.2-0.1,0.3-0.3,0.3c0,0-0.3,0-0.3,0c-0.1,0-0.3,0-0.4,0c-0.1,0-0.2-0.2-0.2-0.3 c0-0.3,0.1-0.5,0.2-0.8c0-0.2,0.1-0.4,0.2-0.6C92.2,37.7,92.3,37.6,92.4,37.6"></path> <path id="Tracé_10" class="st0" d="M3.6,57.3c0,0.2,0,1.2,0,1.5c0,0.2,0,1,0,1.1s0,0.9,0,1c0,0.1,0,0.5-0.6,0.5c0,0-0.5,0-0.6,0 c-0.3,0-0.5,0-0.9,0c-0.3,0-0.7,0-1,0c-0.5,0-0.6-0.2-0.6-0.7c0-0.5,0-3,0-3.5s0-3.5,0-4.1c0-0.3,0-1.9,0-2.2c0-0.2,0-1.3,0-1.6 c0-0.2,0-1,0-1.2c0-0.2,0-1.3,0-1.6c0-0.4,0-0.7,0.1-1C0.2,45.2,0.4,45,0.6,45c0.2,0,1.1,0,1.3,0c0.2,0,1.2,0,1.4,0 c0.2,0,0.5,0.1,0.6,0.3c0.1,0.2,0.2,0.4,0.2,0.7c0,0.1,0.3,0.7,0.3,0.8c0.1,0.3,0.3,0.6,0.4,0.9c0,0.1,0.3,1,0.3,1.1s0,0.2,0.1,0.3 c0,0.1,0.1,0.3,0.1,0.4c0.1,0.2,0.1,0.5,0.2,0.7c0.1,0.2,0.2,0.2,0.2,0.2c0.1,0,0.3-0.5,0.4-0.7c0.1-0.3,0.1-0.5,0.2-0.8 c0.2-0.4,0.7-1.9,0.8-2.3c0.1-0.3,0.1-0.6,0.2-0.9C7.5,45.4,7.6,45,8.1,45c0.2,0,1.4,0,1.7,0c0.2,0,1,0,1.2,0c0.3,0,0.8,0,0.8,0.6 c0,0,0,0.1,0,0.2c0,0.3-0.1,1.7-0.1,1.9c0,0.3,0,1.5,0,1.8c0,0.3,0,1.7,0,2v0.9c0,0.5,0,1.9,0,1.9c0,0.3,0,1.9,0,2.2 c0,0.3-0.1,1.6-0.1,1.9v0.6c0,0.2,0.1,1.1,0.1,1.3c0,0.6-0.1,1-0.7,1c-0.2,0-1,0-1.2,0c-0.1,0-0.8,0-0.9,0C8,61.3,8,60.7,8,60.5 c0-0.1,0-0.6,0-0.8c0-0.2,0-0.5,0-0.7v-1.3c0-0.3,0-1.6,0-1.9c0-0.1,0-0.7,0-0.9c0-0.1,0-1.5,0-1.6V53c0,0,0-0.1-0.1-0.1 c0,0,0,0,0,0c-0.2,0-0.2,0-0.2,0.3c0,0.1,0,0.1,0,0.2c0,0.1-0.1,0.2-0.1,0.3c0,0.2-0.3,1-0.4,1.2c-0.1,0.4-0.3,0.8-0.5,1.2 c-0.1,0.2-0.2,0.5-0.3,0.7c-0.2,0.5-0.3,0.7-0.6,0.7c-0.3,0-0.6-0.2-0.8-0.7C5,56.6,5,56.3,4.9,56c-0.1-0.4-0.3-0.7-0.5-1.1 c-0.1-0.3-0.2-0.7-0.3-1c-0.3-1-0.3-1-0.4-1c-0.1,0-0.2,0.1-0.2,0.2c0,0,0,0.3,0,0.4c0,0,0,0.3,0,0.4c0,0.2,0,0.4,0,0.5 c0,0.4,0.1,1.5,0.1,1.8L3.6,57.3z"></path> <path id="Tracé_11" class="st0" d="M14.4,44.9c0.2,0,1.3,0,1.5,0c0.1,0,0.7,0,0.8,0c0.3,0,0.8,0.1,0.8,0.7c0,0.7,0,1.9,0,2.5 c0,0.3,0,1.5,0,1.8c0,0.4-0.1,2.2-0.1,2.6c0,0.2,0.1,1.3,0.1,1.6c0,0.4,0,1,0,1.4c0,0.2,0,1.2,0,1.4c0,0.6,0.2,1,0.8,1 c0.6,0,1-0.2,1-1v-1.2c0-0.1,0-0.5,0-0.7c0-0.1,0-1.4,0-1.6c0-0.2,0-1.1,0-1.3c0-0.3,0-2,0-2.4c0-0.3,0-1.8,0-2.1c0-0.2,0-1,0-1.2 V46c0-0.1,0-0.4,0-0.5c0-0.4,0.4-0.6,0.7-0.6c0.2,0,1,0,1.2,0c0.1,0,0.8,0,0.9,0c0.4,0,0.8,0.3,0.9,0.7c0,0.1,0,0.1,0,0.2 c0,0.1,0,0.6,0,0.8c0,0.3,0.1,1.4,0.1,1.7c0,0.2,0,1,0,1.2c0,0.2,0,1.2,0,1.4c0,0.2-0.1,1.4-0.1,1.6c0,0.2,0,1.4,0,1.7 c0,0.3-0.1,1.7-0.1,2.1c0,0.2,0,1.2,0,1.4c0,1.2-0.6,2.4-1.6,3.1c-0.8,0.6-1.8,0.9-2.8,0.9c-2.1,0-2.8-0.4-3.5-1 c-0.8-0.8-1.2-1.9-1.1-3.1c0-0.6,0-1.2,0-1.7c0-0.3-0.1-1.9-0.1-2.2c0-0.6,0-1.2,0-1.7c0-0.2,0-1.3,0-1.6c0-0.1,0-0.5,0-0.6 c0-0.3,0-0.6,0-0.9c0-0.1,0-0.2,0-0.6c0-0.3,0-0.6,0-1.1c0-0.2,0-1,0-1.2C13.8,45,14.3,44.9,14.4,44.9"></path> <path id="Tracé_12" class="st0" d="M24.4,50.6c0-1.2,0.3-2.4,0.9-3.5c0.3-0.5,0.7-1,1.2-1.4c0.7-0.6,1.7-0.9,2.6-0.9 c0.6,0,1.1,0.1,1.7,0.2c0.3,0.1,0.6,0.4,0.6,0.8c0,0.1,0,0.5,0,0.6c0,0.2,0,1.3,0,1.6c0,0.2,0,0.8-0.6,0.8c-0.1,0-0.3,0-0.4-0.1 c-0.2,0-0.4-0.1-0.6-0.1c-0.6,0-1.1,0.3-1.4,0.8c-0.2,1.2-0.3,2.5-0.3,3.7c0,2.6,0.3,3.3,0.8,3.9c0.5,0.4,1,0.5,1.6,0.4 c1,0,1,0.4,1,0.9c0,0.1,0,0.9,0,1c0,0.1,0,0.9,0,1.1c0,0.2,0,0.4-0.2,0.6c-0.2,0.3-0.5,0.4-0.9,0.4c-0.1,0-0.2,0-0.3,0 c-1.1,0-2.2-0.2-3.2-0.6c-0.6-0.3-1-0.7-1.4-1.3c-0.9-1.2-1.2-3.1-1.2-6.4C24.3,52.4,24.4,51.5,24.4,50.6"></path> <path id="Tracé_13" class="st0" d="M32.4,51.1c0,0.2,0,1,0,1.2s0,0.9,0,1c0,0.5,0.1,2.6,0.1,3c0,0.7,0,1.4,0.2,2.1 c0.1,0.7,0.4,1.4,0.9,2c0.8,0.8,2,1.3,3.1,1.2c1.2,0.1,2.3-0.3,3.2-1c1.3-1.1,1.6-2.8,1.6-5.3c0-1.2,0-2.3-0.1-3.5 c0-0.6,0-1.3,0-1.9c0.1-1.3-0.2-2.6-0.9-3.8c-0.4-0.4-0.8-0.8-1.4-1c-0.7-0.2-1.4-0.3-2.1-0.3c-0.8-0.1-1.7,0.1-2.4,0.5 c-0.8,0.4-1.4,1-1.8,1.8C32.5,48.4,32.4,49.7,32.4,51.1 M36.9,48.1c0.8,0,0.8,0.9,0.9,1.3c0,0.8,0.1,2.2,0.1,3c0,0.4,0,2.3,0,2.7 c0,0.3,0,1.4,0,1.7c0,0.7-0.3,1.3-0.9,1.3c-0.6,0-0.7-0.7-0.8-1c-0.1-0.4-0.1-2.2-0.1-2.7c0-0.9,0-2.4,0-3.3c0-0.8,0-1.5,0.1-2.2 C36.2,48.4,36.6,48.1,36.9,48.1"></path> <path id="Tracé_14" class="st0" d="M43.1,52.5c-0.2-1-0.4-2-0.6-3.1c-0.1-0.8-0.2-1.6-0.3-2.4c-0.1-0.5-0.2-1-0.2-1.5 c0-0.5,0.4-0.5,0.6-0.5c0.1,0,0.8,0,0.9,0c0.2,0,1.2-0.1,1.4-0.1c0.6,0,0.7,0.3,0.8,0.8c0.1,0.4,0.3,2.5,0.4,2.8 c0,0.4,0.1,0.8,0.2,1.2c0,0.5,0.1,1,0.1,1.5c0,0.5,0.3,3.1,0.4,3.7c0,0.1,0.1,0.7,0.1,0.7c0,0.1,0,0.4,0.2,0.4 c0.1,0,0.1-0.1,0.2-0.6c0-0.1,0.1-1.6,0.2-1.7c0-0.6,0.4-3.4,0.4-4c0-0.2,0-1,0.1-1.2c0-0.2,0.1-0.5,0.1-0.7c0.1-0.5,0.1-1,0.1-1.4 c0.1-1.2,0.1-1.5,1.1-1.5c0.2,0,1.2,0.1,1.4,0.1c0.1,0,0.3,0,0.4,0h0.4c0.3,0,0.5,0.3,0.5,0.6c0,0.2-0.1,0.5-0.1,0.7 c-0.2,0.7-0.4,2.6-0.4,2.8s0,0.5-0.1,0.7c0,0.1-0.6,3.1-0.6,3.4c-0.1,0.6-0.6,3.7-0.7,4.4c-0.1,0.4-0.2,0.8-0.3,1.2 c0,0.2-0.2,1.3-0.3,1.6c-0.1,0.4-0.2,0.9-0.8,0.9c-0.2,0-0.3,0-0.5,0c-0.5,0-0.9,0-1.3,0h-1.2c-0.1,0-0.5,0-0.6,0 c-0.5,0-0.5-0.4-0.6-0.7c0-0.2-0.3-1.3-0.3-1.6c-0.2-1-0.4-2-0.6-3c-0.1-0.6-0.2-1.3-0.3-1.9C43.3,53.6,43.2,53.1,43.1,52.5"></path> <path id="Tracé_15" class="st0" d="M53.9,45c0.2,0,0.9,0,1.1,0s1.1,0,1.3,0c0.5,0,0.6,0.5,0.6,0.7c0,0.1,0,0.3,0,0.4 c0,0.3,0,0.6,0,0.9c0,0.8,0,1.6,0,2.3c0,0.4,0,1,0,1.4c0,0.1,0,0.8,0,1c0,0.2,0,1.4,0,1.6s0,1.5,0,1.8c0,0.2,0,1.2,0,1.4 c0,0.4-0.1,2.2-0.1,2.6c0,0.3,0,0.7,0,1c0,0.2,0,0.4,0,0.6c0,0.3-0.2,0.6-0.5,0.6c-0.1,0-0.6,0-0.8,0c-0.3,0-1.5,0-1.8,0 c-0.6,0-0.6-0.6-0.6-0.9v0c0-0.3,0-1.9,0-2.3c0-0.7,0-1.8,0-2.5c0-0.4,0.1-2.5,0.1-2.9c0-0.2,0-1.4,0-1.6c0-0.2,0-1,0.1-1.2 c0-0.3,0-1.7,0-2.1c0-0.1,0-0.7,0-0.9c0-0.2,0-0.9,0-1.1C53.2,45.2,53.4,45,53.9,45"></path> <path id="Tracé_16" class="st0" d="M58.2,59.2c0-0.1,0-0.6,0-0.7c0-0.1,0-0.4,0-0.5c0-0.2,0-0.3,0.1-0.5c0.2-0.2,0.4-0.4,0.7-0.4 c0.1,0,0.1,0,0.4,0.2c0.1,0.1,0.2,0.1,0.3,0.2c0.4,0.2,0.8,0.3,1.2,0.3c0.6,0,1.1-0.4,1.2-1c0,0,0-0.1,0-0.1c0-0.6-0.4-0.9-1-1.5 c-0.1-0.2-0.3-0.3-0.5-0.5c-0.2-0.2-0.4-0.4-0.5-0.7c-0.2-0.2-0.4-0.4-0.6-0.7c-0.3-0.3-0.5-0.7-0.6-1c-0.5-0.8-0.7-1.8-0.7-2.8 c-0.1-0.9,0.1-1.8,0.5-2.6c0.3-0.4,0.6-0.8,0.9-1.2c0.9-0.6,2-0.9,3.1-0.8c0.7,0,1.3,0,1.9,0.2c0.4,0.2,0.4,0.5,0.4,1.7v1.1 c0,0.2,0,0.3-0.1,0.5c-0.2,0.2-0.4,0.4-0.7,0.4c-0.1,0-0.2,0-0.4-0.1c-0.3-0.1-0.7-0.2-1.1-0.2c-0.7,0-1,0.3-1,0.9 c0,0.4,0.2,0.7,0.5,1c0.1,0.1,0.3,0.4,0.5,0.5c0.1,0.1,0.7,0.8,0.9,1c0.8,0.7,1.5,1.6,1.8,2.6c0.4,0.9,0.5,1.8,0.5,2.7 c0.1,1.9-1.2,3.7-3,4.3c-0.5,0.1-1.1,0.2-1.6,0.2c-0.7,0-1.3-0.1-2-0.3c-0.7-0.2-1.1-0.3-1.1-0.9L58.2,59.2z"></path> <path id="Tracé_17" class="st0" d="M67.1,50.6c0-1.2,0.3-2.4,0.9-3.5c0.3-0.5,0.7-1,1.2-1.4c0.7-0.6,1.7-0.9,2.6-0.9 c0.6,0,1.1,0.1,1.7,0.2c0.3,0.1,0.6,0.4,0.6,0.8c0,0.1,0,0.5,0,0.6c0,0.2,0,1.3,0,1.6c0,0.2,0,0.8-0.6,0.8c-0.1,0-0.3,0-0.4-0.1 c-0.2,0-0.4-0.1-0.6-0.1c-0.6,0-1.1,0.3-1.4,0.8c-0.2,1.2-0.3,2.5-0.3,3.7c0,2.6,0.3,3.3,0.8,3.9c0.5,0.4,1,0.5,1.6,0.4 c1,0,1,0.4,1,0.9c0,0.1,0,0.9,0,1c0,0.1,0,0.9,0,1.1c0,0.2,0,0.4-0.2,0.6c-0.2,0.3-0.5,0.4-0.9,0.4c-0.1,0-0.2,0-0.3,0 c-1.1,0-2.2-0.2-3.2-0.6c-0.6-0.3-1-0.7-1.4-1.3c-0.9-1.2-1.2-3.1-1.2-6.4C67,52.4,67.1,51.5,67.1,50.6"></path> <path id="Tracé_18" class="st0" d="M76.5,45c0.2,0,0.9,0,1.1,0s1.1,0,1.3,0c0.5,0,0.6,0.5,0.6,0.7c0,0.1,0,0.3,0,0.4 c0,0.3,0,0.6,0,0.9c0,0.8,0,1.6,0,2.3c0,0.4,0,1,0,1.4c0,0.1,0,0.8,0,1c0,0.2,0,1.4,0,1.6s0,1.5,0,1.8c0,0.2,0,1.2,0,1.4 c0,0.4-0.1,2.2-0.1,2.6c0,0.3,0,0.7,0,1c0,0.2,0,0.4,0,0.6c0,0.3-0.2,0.6-0.6,0.6c-0.1,0-0.6,0-0.8,0c-0.3,0-1.5,0-1.8,0 c-0.6,0-0.6-0.6-0.6-0.9v0c0-0.3,0-1.9,0-2.3c0-0.7,0-1.8,0-2.5c0-0.4,0.1-2.5,0.1-2.9c0-0.2,0-1.4,0-1.6c0-0.2,0-1,0.1-1.2 c0-0.3,0-1.7,0-2.1c0-0.1,0-0.7,0-0.9c0-0.2,0-0.9,0-1.1C75.7,45.2,75.9,45,76.5,45"></path> <path id="Tracé_19" class="st0" d="M81.5,46.3c0,0.3,0.1,1.5,0.1,1.7c0,0.9-0.1,2.5-0.1,3.4c0,0.7,0,1.4,0,2.2c0,0.3,0,1.6,0,1.9 c0,0.3,0,2,0.1,2.7c0,0.2,0,0.5,0,0.7c0,0.2-0.1,1.3-0.1,1.5c0,0.2,0.1,0.4,0.2,0.6c0.2,0.3,0.5,0.4,0.9,0.4c0.1,0,0.7,0,0.8,0 c0.3,0,1.2,0,1.3,0c0.2,0,1.1,0,1.3,0c0.8,0,1.6-0.2,2.3-0.7c0.7-0.4,1.1-0.8,1.6-2.4c0.2-0.5,0.3-1.1,0.3-1.7c0-0.4,0-0.8,0.1-1.1 c0-0.3,0-0.5,0.1-0.8c0.1-0.6,0.1-1.2,0.1-1.8c0-0.3,0-0.7,0-1c0-0.3-0.2-2.2-0.2-2.4c-0.1-1-0.4-1.9-0.9-2.7 c-0.6-1-1.7-1.7-2.9-1.7c-0.2,0-1.2,0-1.4,0h-1.2c-0.2,0-1.1,0-1.3,0C81.7,45,81.5,45.2,81.5,46.3 M85.7,48.5c0.5,0,0.8,0.6,1,1.6 c0,0,0.2,2.6,0.2,2.7c0,0.2,0,0.8,0,0.9c0,0.1,0,0.7,0,0.8c0,0.7-0.1,1.4-0.1,2.1c-0.1,0.4-0.2,0.7-0.5,0.9 c-0.2,0.1-0.3,0.2-0.5,0.2c-0.5,0-0.5-0.5-0.5-0.8c0-0.2,0-1,0-1.1c0-0.3,0-1.4,0-1.6c0-0.1,0-0.6,0-0.6c0-0.2,0-0.3,0-0.5 c0-0.1,0-0.7,0-0.9c0-0.2,0-0.9,0-1.1v-1.8c0-0.2,0.1-0.4,0.3-0.6C85.4,48.6,85.5,48.5,85.7,48.5"></path> <path id="Tracé_20" class="st0" d="M92,51c0,0.2,0,1,0,1.2s0,0.9,0,1c0,0.5,0.1,2.6,0.1,3c0,0.7,0,1.4,0.2,2.1 c0.1,0.7,0.4,1.4,0.9,2c0.8,0.8,2,1.3,3.1,1.2c1.2,0.1,2.3-0.3,3.3-1c1.3-1.1,1.6-2.8,1.6-5.3c0-1.2,0-2.3-0.1-3.5 c0-0.6,0-1.3,0-1.9c0.1-1.3-0.2-2.6-0.9-3.8c-0.4-0.4-0.8-0.8-1.4-1c-0.7-0.2-1.4-0.3-2.1-0.3c-0.8-0.1-1.7,0.1-2.4,0.5 c-0.8,0.4-1.4,1-1.8,1.8C92.1,48.4,92,49.7,92,51 M96.5,48.1c0.8,0,0.8,0.9,0.9,1.3c0,0.8,0.1,2.2,0.1,3c0,0.4,0,2.3,0,2.7 c0,0.3,0,1.4,0,1.7c0,0.7-0.3,1.3-0.9,1.3c-0.6,0-0.7-0.7-0.8-1c-0.1-0.4-0.1-2.2-0.1-2.7c0-0.9,0-2.4,0-3.3c0-0.8,0-1.5,0.1-2.2 C95.8,48.3,96.1,48.1,96.5,48.1"></path> <path id="Tracé_21" class="st0" d="M102.3,59.2c0-0.1,0-0.6,0-0.7c0-0.1,0-0.4,0-0.5c0-0.2,0-0.3,0.1-0.5c0.2-0.2,0.4-0.4,0.7-0.4 c0.1,0,0.1,0,0.4,0.2c0.1,0.1,0.2,0.1,0.3,0.2c0.4,0.2,0.8,0.3,1.2,0.3c0.6,0,1.1-0.4,1.2-1c0,0,0-0.1,0-0.1c0-0.6-0.4-0.9-1-1.5 c-0.1-0.2-0.3-0.3-0.5-0.5c-0.2-0.2-0.4-0.4-0.5-0.7c-0.2-0.2-0.4-0.4-0.6-0.7c-0.3-0.3-0.5-0.7-0.6-1c-0.5-0.8-0.7-1.8-0.7-2.8 c-0.1-0.9,0.1-1.8,0.5-2.6c0.3-0.4,0.6-0.8,0.9-1.2c0.9-0.6,2-0.9,3.1-0.8c0.7,0,1.3,0,1.9,0.2c0.4,0.2,0.4,0.5,0.4,1.7v1.1 c0,0.2,0,0.3-0.1,0.5c-0.2,0.2-0.4,0.4-0.7,0.4c-0.1,0-0.2,0-0.4-0.1c-0.3-0.1-0.7-0.2-1.1-0.2c-0.7,0-1,0.3-1,0.9 c0,0.4,0.2,0.7,0.5,1c0.1,0.1,0.3,0.4,0.5,0.5c0.1,0.1,0.7,0.8,0.9,1c0.4,0.4,0.8,0.8,1.1,1.2c0.3,0.4,0.5,0.9,0.7,1.4 c0.4,0.9,0.5,1.8,0.5,2.7c0.1,1.9-1.2,3.7-3,4.3c-0.5,0.1-1.1,0.2-1.6,0.2c-0.7,0-1.3-0.1-2-0.3c-0.7-0.2-1.1-0.3-1.1-0.9 L102.3,59.2z"></path> <path id="Tracé_22" class="st0" d="M119.1,60.3c0,0.4,0,1-0.7,1.1c-0.2,0-1.8,0-2.1,0c-0.1,0-0.8,0-0.9,0c-0.2,0-1-0.1-1.2-0.1 c-0.3,0-1.7,0.1-2,0.1c-0.4,0-0.8-0.3-0.8-0.7c0,0,0-0.1,0-0.1c0-0.1,0-2.4,0-2.9c0-0.5-0.1-3-0.1-3.6c0-0.2,0-1.2,0-1.4 c0-0.6,0-1.3,0-2c0-0.3,0-1.4,0-1.7c0-0.2,0-1.2,0-1.4v-0.9c0-0.1,0-0.7,0-0.9c-0.1-0.4,0.2-0.8,0.6-0.8c0.1,0,0.1,0,0.2,0 c0.1,0,0.3,0,0.5,0c0.2,0,0.4,0,0.5,0c0.3,0,1.9-0.1,2.2-0.1c0.3,0,1.5,0,1.7,0c0.3,0,0.5,0,0.8,0c0.9,0,1,0.4,1,1.1 c0,0.2,0,0.5,0,0.7c0,0.1,0,0.6,0,0.7c0,0.8-0.3,1-0.9,1c-0.2,0-0.4,0-0.6,0h-0.4c-0.2,0-0.4,0-0.6,0c-0.1,0-0.8,0-0.9,0 c-0.2,0-0.4,0.1-0.5,0.3c-0.1,0.2-0.1,0.2-0.1,0.9c0,0.1,0,0.6,0,0.7c0,0.5,0.1,0.7,0.9,0.7c0.3,0,1,0,1.5,0c0.2,0,0.4,0,0.6,0 c0.3,0,0.6,0.1,0.8,0.3c0.1,0.2,0.1,0.2,0.1,1.5c0,0.1,0,0.6,0,0.7c0,0.9-0.3,1.1-1.1,1.1c-0.2,0-1.1-0.1-1.3-0.1 c-1.2,0-1.3,0.2-1.4,0.5c0,0.1,0,0.7,0,0.9c0,0.1,0,0.6,0,0.7c0,0.9,0.2,1,0.8,0.9c0.1,0,0.9,0,1,0c0.1,0,0.6,0,0.7,0 c1.6,0,1.7,0.1,1.7,1.4L119.1,60.3z"></path> <path id="Tracé_23" class="st0" d="M96.1,13.2H96V13h0.2C96.2,13.1,96.2,13.2,96.1,13.2 M95.6,15.6c-0.4-0.3,0.3-0.7,0.2-1v-0.6 c0.2,0,0.2,0.3,0.3,0.5C95.7,14.9,96.7,16,95.6,15.6 M96,16.3l-0.2-0.2H96V16.3z M95.6,21.9c-0.1,0.1-0.2,0.1-0.3,0.1 c-0.4-0.2,0-0.5,0-0.7C95.3,21.3,95.7,21.5,95.6,21.9 M95.2,19.8L95.2,19.8l0.1,0.2h-0.1V19.8z M60.2,30.7C60,30.6,60,30.9,59.9,31 v0.6h-0.2c-0.4-0.6,0.3-0.7,0.2-1.3c0.2-0.2,0.5-0.3,0.7-0.1C60.8,30.5,60.4,30.6,60.2,30.7 M35.5,5.5L35.5,5.5l-0.1-0.2h0.1V5.5z M34.9,6.5h-0.2c0-0.2,0.2-0.1,0.3-0.2c0,0,0.1,0.1,0.2,0.1C35.1,6.5,35,6.5,34.9,6.5 M34.7,7.5c-0.1,0.2-0.3,0.3-0.6,0.4 c-0.1-0.5,0.6-0.8,0.2-1.2c0.3-0.1,0.5,0,0.7,0.2C35.1,7.2,34.7,7.3,34.7,7.5 M33.8,9.1c-0.2,0.1-0.3,0.6-0.6,0.5 c-0.1-0.2-0.4-0.3-0.3-0.5C33.2,9.1,34.1,8.1,33.8,9.1 M34.6,5.8c0.1,0,0.2,0,0.2,0.1h-0.2V5.8z M31.7,13c-0.1-0.1-0.3-0.3-0.1-0.4 c0.1-0.1,0.3-0.2,0.5-0.2C32.2,12.8,31.9,13.1,31.7,13 M97.3,11.1c-0.1,0-0.3-0.1-0.4,0.1c-0.2,0.1-0.6,0.2-0.8-0.1l-0.6,0.5 c-0.6-0.8-1.4,0.7-1.8-0.3c0-0.7,0-1.5-0.2-2.2h-1.6c-0.4-0.7-1.1,0-1.7-0.2c-0.2-0.2-0.4-0.4-0.4-0.7c-0.6-0.2-0.9-0.7-1.6-0.5 c-1,0.2-0.1-1.4-1.3-1c-0.1,0.5-1,0-0.8,0.7C85.9,7.8,85.4,8,85,7.9c0-0.7-0.1-1.3,0.6-1.7c0.2-0.3,0.1-0.7-0.2-0.8c0,0,0,0,0,0 L85,5.7c-0.4,0.1-0.9-0.1-0.8-0.5l-0.2,0.3c-0.2-0.1-0.6,0.1-0.7-0.2c0-0.2-0.1-0.5,0.1-0.7c-0.5,0.1-1,0.4-1.3,0.7 c-0.8-0.2-0.4-1.1-1-1.4c-0.3,0.7-1.2,0-1.4,0.8c-0.3-0.2-0.4-0.5-0.8-0.6c-1,0.2-1.3,1.3-1.7,2.1c-0.6,0.4-0.4,1.3-1.2,1.4 C75.9,8.4,75,8.5,75,9.2c-0.2,0.2-0.4,0.3-0.7,0.4c0,0.6-0.6,0.9-0.6,1.5c-0.1,0.1-0.1,0.2-0.2,0.2c-0.7,0.7-1.3,1.5-1.6,2.4 c-0.1,0.4-0.7,0.6-0.8,0.8c-0.2,0.6-0.9,0.8-0.7,1.5c-0.1,0.5-0.8,0.7-0.8,1.2c-0.7,0.7-0.9,1.6-1.5,2.4c-0.3,0.2-0.9,0.4-0.7,1 c-0.7,0.4-0.9,1.2-1.5,1.6c-0.1-0.2-0.2-0.5-0.2-0.7c0.1-0.1,0.1-0.2,0.2-0.2v-0.2c-0.4-0.2-0.6,0.4-0.8,0.6 c-0.3,0.6-0.6,1.2-0.7,1.8h0.1c0.3-0.2,0.5-0.5,0.5-0.9c0.2-0.2,0.3-0.5,0.7-0.4c0.1,0.2,0.3,0.3,0.3,0.4c-1,0.1-0.7,1.4-1.5,1.7 c0.5,0.8-0.7,0.8-0.7,1.4c0.3,0.6-0.7,0.4-0.5,0.9c-0.6,0.6-0.7,1.5-1.6,1.6c0.1,0.3-0.1,0.6-0.1,0.8c-0.2,0.2-0.5,0.7-0.8,0.7 c-0.6-0.5,0-1.2-0.2-1.8c1.1-0.6-0.8-1,0-1.8c0.8-0.6-0.6-1.3,0.6-1.7c-0.2,0.1-0.3-0.1-0.5-0.2c0.2-0.3,0-0.8,0.3-1 c-0.4-0.7,0-1.5-0.1-2.2c0.5-0.7-0.3-1.5,0.4-1.9l-0.7-0.8l0.7-0.7c-0.1-1.2,0.5-2.3,0.2-3.5c0.7-0.4-0.1-0.8-0.1-1.3 c0.5-0.7,0-1.5,0.4-2.3c-0.2-0.4-0.6-0.2-0.8-0.5c0-0.2-0.1-0.6,0.2-0.7c0.3-0.3-0.2-0.3-0.3-0.5c-0.6-0.9-1.8-0.5-2.5-1.1 c0.2-1.9-1.2-0.2-1.9-1.2c0.2,0.9-0.9,0.3-1.1,0.8c-0.4,0.2-0.5-0.2-0.8-0.4c0.1-1-1-1.3-0.8-2.2c-0.6,0.1-0.9,0.5-1.3,0.8 c-0.5,0-0.3,0.9-1,0.6c0.1,0.8-0.5-0.2-0.8,0.3c0-0.2,0-0.4-0.3-0.5c-0.2-0.5,0.5-0.1,0.5-0.5c-0.1-0.2-0.3-0.6-0.7-0.4l0.2,0.2 c0.1,0.2-0.2,0.3-0.3,0.5c-0.3-0.7-1.1-0.1-1.4-0.8c-0.3-0.4,0.5-0.2,0.3-0.7c-0.8,0-1.6,0.3-2.3,0.7c-0.2,0.2-0.2,0.7-0.7,0.6 c-0.4-0.8,0.1-1.6,0.6-2.3c-0.5,0-0.8,0.5-1.4,0.4c-0.3-0.2-0.5-0.5-0.8-0.8c0.2-0.1,0.5-0.3,0.5-0.6c0,0-0.1-0.1-0.1-0.1 c-0.1,0.3-0.2,0.5-0.4,0.7c-0.3,0-0.6-0.4-0.8-0.7c-0.7-0.2-0.7,0.7-1.3,0.7c-0.8-0.4-0.1-1.5-0.9-2C41,1,41,1.3,40.9,1.5 c-0.2,0.3-0.6,0.5-0.9,0.4c-0.7-0.7-1.8-0.1-2.5,0.2c0,0.2,0.1,0.3,0.2,0.4c0,0.3-0.2,0.5-0.4,0.7l0.1,0.1c0.1,0.2-0.1,0.2-0.2,0.4 c-0.7-0.1-0.2,0.8-0.8,1.1c-0.3,0.1-0.7,0.4-1.1,0.2c0.5-0.8,0.9-1.7,1.1-2.7c0.6,0,0.5-0.8,0.8-1l-0.2-0.1 c-0.1-0.4,0.2-0.6,0.4-0.8V0c-0.9,0-0.9,1.3-1.7,1.9c0.1,0.6-0.4,1.1-0.5,1.7c-0.6,0.1-0.5,0.8-0.8,1.1c-0.4,1.5-1.1,2.9-2.1,4.1 c0,0.4-0.3,0.9,0,1.3c0.1,0,0.2,0,0.3-0.1c0.2-0.1,0.7-0.5,0.9,0c0,0.6-0.7,0.9-0.9,1.3c0,0.2,0.4,0.2,0.3,0.5 c-0.3,0.1-0.7,0.6-1,0.2c0-0.1,0.1-0.2,0.2-0.3l-0.2-0.2l0.2-0.3c-0.8-0.4-0.1,0.9-0.9,0.8c-0.1,0.8-1.1,1.4-0.7,2.3 c0.2-0.3,0.7-0.5,0.8-0.9c1.4,0.2-0.1,1,0.1,1.8c-0.5,0.2-1,0.6-1.6,0.3c-1-0.1-0.5,1.3-1.3,1.4c0.1,0.6-0.5,1-0.7,1.6 c-0.3,0.6-0.1,1.3-0.7,1.7c0.1,0.6-0.6,1-0.3,1.6c-0.3,0.1-0.1,0.8-0.5,0.8c0.2,0.7-0.7,1-0.8,1.7c-0.1,0.1-0.3,0.2-0.4,0.1 c0.1,0.7-0.5,0.9-0.4,1.7c-0.6,0.8-0.9,1.7-0.9,2.7c-0.4,0.5-0.5,1-0.9,1.5c0,0.8-0.8,1.3-0.8,2c0.7-0.1,1.3-0.2,2-0.2 c0.3-0.2,0.8,0.1,1-0.2c0.2,0.2,0.6,0,0.7,0.3c0.7-0.4,1.4,0,2.1-0.3c1.4,0.8,2.8-0.1,4.5,0.2c0.7,0.4,1.5-0.1,2.4,0.2 c1.6-0.2,3.1-0.2,4.7-0.2l0.2-0.2c-0.1-0.7,0.6-0.9,0.4-1.5c0.4-0.4,0.2-1.1,0.5-1.6c0.5-0.6,0.5-1.3,0.9-1.9c0,0.3,0.7,0.9,0,1.2 c-0.2,0.4,0.2,0.7,0.3,1.1c0.3,0.3-0.3,0.4-0.4,0.3c-0.2,0.8-1.3,1.4-1.1,2.3c0.1-0.1,0.5-0.1,0.3-0.4c0.6-0.3,0.1-1,0.8-1.3 c0.2,0,0.5-0.1,0.6,0.2c0,0.1-0.1,0.2-0.2,0.2c0.3,0.6-0.7,1,0.2,1.3c0.8,0.7,1.6-0.1,2.5,0.3c0.2-0.1,0.2-0.3,0.6-0.2 c0.5,0.4,1.4,0,2,0c0.1,0.1,0.3,0.3,0.5,0.2c0-0.1,0.1-0.1,0.1-0.2c2.3-0.2,4.7-0.1,7,0.1c0.7,0.1,1.4,0,2-0.2c2,0,3.8-0.1,5.9,0.1 v0.1c0.4,0.2,0.7-0.3,1,0c1,0.2,2.1-0.5,2.9,0c0.7-0.4,1.4,0,2-0.3c0.2,0,0.3,0,0.4,0.2c0.7,0.2,1.4,0,2,0.2 c0.8-0.2,1.6-0.2,2.4-0.2c0.2,0.6,0.7-0.2,1,0.2c0.5-0.5,1,0.2,1.5-0.2h5.7c0.4,0.4,0.9,0,1.3-0.1c0.9,0.7,1.6-0.1,2.6,0.3 c0.1-0.2,0.3-0.3,0.5-0.2c0.1,0,0.2,0.1,0.2,0.2c0.3,0.2,0.5-0.2,0.8-0.1c0.7-0.1,1.1,0.2,1.7,0c1.8-0.1,3.6-0.1,5.4,0l0.3-0.2 c-0.2-0.3,0.1-0.8-0.2-1c-0.1-0.5,0.1-1,0.5-1.3c0-0.4,0.5-0.8-0.1-1c-0.4-0.6,0.3-0.9,0.6-1.3c-0.4-0.5,0.1-1.4-0.4-1.9 c0.1-0.7,0.1-1.4,0-2.1c0.6-0.4-0.1-1.3,0.5-1.5c0.2,0.1,0.3,0.4,0.5,0.4c0,0.2-0.4,0.3-0.3,0.6c0.5,0.9-0.3,1.9,0.3,2.8 c0.2,0,0.4-0.2,0.6-0.2c-0.1-0.9-0.1-1.7,0.2-2.6c-0.1-0.4,0-1.3-0.7-0.9c0.1-0.6,0.5,0.1,0.6-0.5c0.1-0.7,0.2-1.4,0.1-2 c0.2-1.6,0.2-3.5,0.5-4.9c-0.2-0.5-0.1-1,0.2-1.4C97,12.4,97.8,11.9,97.3,11.1"></path> <path id="Tracé_24" class="st0" d="M62,24.8c0.3-0.2,0.1-0.5-0.1-0.7c0.1-0.1,0.3-0.2,0.3-0.4c-0.9-0.2-0.2,0.6-1,0.8l0.4,0.4 C61.7,25,61.9,24.9,62,24.8"></path> <path id="Tracé_25" class="st0" d="M39.5,1.3c0.2-0.1,0.5-0.1,0.3-0.4c-0.1-0.3-0.6-0.2-0.7,0.1C38.9,1.2,39.4,1.3,39.5,1.3"></path> <path id="Tracé_26" class="st0" d="M45.8,2.1c-0.2-0.2-0.5,0-0.4,0.2C45.5,2.3,45.8,2.3,45.8,2.1"></path> <path id="Tracé_27" class="st0" d="M46.9,3.1h-0.2v0.2C46.7,3.3,47,3.4,46.9,3.1"></path> <rect id="Rectangle_1" x="80.8" y="3.2" class="st0" width="0.1" height="0.2"></rect> <path id="Tracé_28" class="st0" d="M49.4,5.1l0.5,0.1C49.9,4.9,49.4,4.8,49.4,5.1"></path> <path id="Tracé_29" class="st0" d="M68.2,17.3h-0.1l0.1,0.2V17.3z"></path> <path id="Tracé_30" class="st0" d="M62.5,18.1c0.1,0,0.1-0.2,0.1-0.2h-0.3C62.3,17.9,62.3,18.1,62.5,18.1"></path> <path id="Tracé_31" class="st0" d="M62.6,18.9c-0.1-0.2-0.4-0.1-0.3,0.1C62.3,18.9,62.5,19,62.6,18.9"></path> <path id="Tracé_32" class="st0" d="M62.1,19.4L62,19.9h0.2C62.4,19.8,62.1,19.6,62.1,19.4"></path> <path id="Tracé_33" class="st0" d="M66.8,19.5c-0.3,0.1-0.8,0.6-0.5,1.1C66.7,20.4,66.6,19.9,66.8,19.5"></path> <path id="Tracé_34" class="st0" d="M61.9,22.7l-0.3,0.4c0.2,0,0.4,0.3,0.6,0.1v-1h-0.3c-0.1,0.1-0.2,0.2-0.1,0.4 C61.8,22.6,61.8,22.7,61.9,22.7"></path> <path id="Tracé_35" class="st0" d="M63.8,24c-0.2,0-0.2,0.1-0.2,0.3C63.7,24.2,63.9,24.2,63.8,24"></path> <path id="Tracé_36" class="st0" d="M96,26.7c0,0.3,0,1.1,0.3,1.1C96.2,27.5,96.8,26.8,96,26.7"></path> <rect id="Rectangle_2" x="96.4" y="30.5" class="st0" width="0.1" height="0.2"></rect> <path id="Tracé_37" class="st0" d="M96.5,31.2v0.4h0.1C96.6,31.4,96.7,31.2,96.5,31.2"></path> <rect id="Rectangle_3" x="95.2" y="31.9" class="st0" width="0.1" height="0.1"></rect> <path id="Tracé_38" class="st0" d="M57,74.5c-0.2,0.1-0.3-0.2-0.4-0.2C56.7,74,57,74.4,57,74.5 M69.5,63.5 c-0.4,0.1-0.9-0.1-1.3,0.2c-0.9-0.3-1.6,0-2.5-0.2c-0.8-0.2-1.9,0.5-2.7-0.2c-0.3,0-0.6,0-0.8,0.2c-0.2,0-0.5,0.2-0.7-0.1 c-0.7,0.8-1.1-0.5-2-0.1c-0.3,0.5-1,0-1.4,0.4c-0.9-0.3-1.7,0.1-2.5-0.2c-0.8-0.2-1.9,0.4-2.5-0.2c-0.8,0.4-1.5,0-2.3,0.4 c-1.4-0.7-3,0-4.5-0.2l-0.2-0.3c-0.2,0-0.3,0-0.4,0.2c-0.6-0.1-1.2-0.1-1.7,0c-0.6-0.2-1,0.4-1.6-0.1l-3,0.2 c0.5,1.9-1.3,5.4,1.6,5.8c0.8,1,2.1,0.9,3.1,1.4c0,0.8,0.9,1.2,1.4,1.8c0.5,0.2,1.1-0.4,1.5,0.2c0.1,0.7,1.1,0.6,1.3,1.4 c0.2,0,0.3-0.1,0.4-0.2c0.5-0.1,0.7,0.2,1.1,0.3c0.5,0.4,0.5-0.3,0.6-0.6c0.4-0.2,0.7,0.1,1.1-0.1c0.5,0.3,0.6,1.1,1.3,1.3 c0.8-0.1,1.1,0.8,1.8,0.7c0.9,0.4,0.2-0.9,1-0.8c0.4,0.1,0.3,0.6,0.7,0.7c0.6,0.4,1.1-0.3,1.6-0.5c1.2-1.6-1.1-0.5-1.5-1.5l0.5-0.5 c0.3-0.1,0.5,0.1,0.7,0.3c0.1,0,0.2,0,0.2-0.1l-0.1-0.1c-0.1-0.2,0.1-0.2,0.2-0.3c-0.1-0.5,0-1.3-0.7-1.5c0.2-0.6,0-0.7-0.3-1 l0.2-0.2c0.3,0.4,1-0.1,1.3,0.4c0.3,0,0.6,0,0.8-0.1c0.8,0.6,1.4-0.8,2.3-0.3c0.6,0.9,1.8,0,2.4,0.7c0.3-0.5,0.6,0.2,1,0 c0.6-0.6,0.7,0.6,1.4,0.1c0.5-0.2,0.7-0.7,0.7-1.3c0.3-1,1.4-1.3,1.7-2.3c0-0.7,0.2-1.2,0.2-1.9c0.2-0.5,0.5-0.8,1-0.9 C69.4,64,69.7,63.7,69.5,63.5"></path> <path id="Tracé_39" class="st0" d="M27.8,63.7c-0.5,0-0.9-0.4-1.4,0c-1.1-0.3-2.4-0.1-3.6-0.2c-0.1-0.1-0.2-0.1-0.2-0.2 c-0.2,0-0.6,0-0.7,0.2c-0.6-0.2-1.4,0.5-1.8-0.2c-0.4,0.1-0.9-0.2-1.2,0.2c-1,0-1.8,0.1-2.6,0.2c-1.1-0.2-2.2-0.2-3.3-0.2 c-0.6-0.7-1,0.4-1.7-0.1c-0.6,0.9-1,1.8-1.1,2.9c-0.3,0.6-0.6,1.3-0.9,1.9c-1.1,0.5,0.1,1.9-1,2.4c-1.1,0.4-1.2,1.8-2,2.5 c0,0.4-0.1,0.8,0.2,1.1c0.6,0.8-0.1,1.3-0.1,2.2c0.8,0.5,1.8-0.2,2.4,0.6c0.4,0.4-0.4,0.7,0,1.2c0.4,0.2,1,0.1,1.3-0.2 c0.3-0.2,0.7,0.1,1,0.1c1,0.2,2,0,2.7-0.8c1.3,0.4-0.5,1.2,0.7,1.5c0.9,0.4,1.7,0.9,2.3,1.6c0.4,0.2,0.8-0.3,1.3-0.2 c0.3,0.1,0.9,0.3,0.5,0.8c0.2,0.2,0.4,0.5,0.7,0.4c0.4-0.5,0.9-0.5,1.4-0.7c0.7-0.6,1,0.5,1.4,0.7c0.5,0.1,0.5-0.5,0.7-0.7 c0.6-0.2,0.7-1,1.2-1.5c0.5-0.8-0.2-1.8,0.2-2.5c0.1-0.2-0.2-0.4-0.3-0.4c-0.1-0.4,0.2-0.6,0.4-0.8c0.4-0.4,0-0.6,0-1.1 c0.3-0.8,0.7-1.5,1.1-2.2c-0.3-0.6,0.6-0.8,0.3-1.4c0.3-0.4,0.2-1,0.7-1.4c0-0.2,0-0.4-0.1-0.7c0.1-0.5,0.9-0.9,0.7-1.3 c0.1-0.7-0.2-1.4,0.2-1.9C28.3,65.2,27.5,64.3,27.8,63.7"></path> <path id="Tracé_40" class="st0" d="M30.2,63.8c-0.5,0.9-0.8,1.9-1,2.9c-0.7,0.4-0.2,1.3-1,1.8l0.3,0.2c0.1,0.1-0.1,0.2-0.1,0.2 c0.3,0.6-0.6,1.1-0.1,1.6c1.6,0,0-1.7,1.4-1.9c0.5-0.7-0.2-1.2,0.5-1.8c-0.2-1,0.8-1.5,0.5-2.4c0.1-0.3,0.6-0.4,0.4-0.8 C30.9,63.4,30.1,63.3,30.2,63.8"></path> <path id="Tracé_41" class="st0" d="M69.6,65c0-0.1,0.1-0.1,0.1-0.2h-0.1V65z"></path> <path id="Tracé_42" class="st0" d="M75.2,67.1c-0.3,0.2-0.3,0.6,0,0.9c0,0,0,0,0,0C75.4,67.7,75.3,67.4,75.2,67.1"></path> <path id="Tracé_43" class="st0" d="M74.7,68.7v0.2c0.2,0.2,0.5,0.4,0.7,0.2v-0.3C75.3,68.2,75,68.8,74.7,68.7"></path> <path id="Tracé_44" class="st0" d="M74.9,69.8c0,0.3-0.4,0.7,0,0.9l0.3-0.4C75.1,70.2,75.2,69.9,74.9,69.8"></path> <path id="Tracé_45" class="st0" d="M60.7,70.5c-0.2,0.2-0.1,0.7,0.2,0.6c0.2-0.2-0.1-0.6,0.2-0.7v-0.3 C60.9,69.9,60.8,70.3,60.7,70.5"></path> <path id="Tracé_46" class="st0" d="M67.5,70.6c0.1-0.1,0.2-0.2,0.2-0.3C67.5,70.3,67.3,70.5,67.5,70.6"></path> <path id="Tracé_47" class="st0" d="M75,70.9L75,70.9l-0.1,0.3C75.1,71.1,75,71,75,70.9"></path> <rect id="Rectangle_4" x="74.8" y="71.4" class="st0" width="0.2" height="0.3"></rect> <path id="Tracé_48" class="st0" d="M57,74.5c0-0.1-0.2-0.5-0.4-0.2C56.7,74.3,56.8,74.6,57,74.5"></path> <path id="Tracé_49" class="st0" d="M26.8,74.7c-0.3,0.4-0.6,0.9-0.8,1.3c0,0.8-0.2,1.5-0.6,2.2c0,0.9-0.1,1.8-0.3,2.7 c-0.1,0.1,0.1,0,0.1,0.2c0.5-0.3,0.8-0.8,0.8-1.4c-0.8-0.4,0.2-0.9,0-1.4c0.5-0.5,0.1-1.3,0.6-1.8C26.5,75.8,27.1,75.1,26.8,74.7"></path> <path id="Tracé_50" class="st0" d="M93.6,65.2c-0.5,0-0.4,1.3-0.9,0.4c-0.2-0.4,0.3-0.6,0.4-0.9C93.3,64.9,93.8,64.8,93.6,65.2 M93.5,69.4c-0.2-0.1-1,0.1-0.9-0.6c0.1,0,0.3-0.3,0.5-0.1L92.9,69c0.2,0.1,0.3,0.2,0.6,0.2L93.5,69.4z M92.8,70.1L92.8,70.1 l-0.1-0.2h0.1V70.1z M92.3,68.1c0.7-0.4-0.2-0.9,0.5-1.3h0.1c0.2,0.4-0.1,1,0.3,1.4c-0.1,0.2-0.2,0.1-0.3,0.2 C92.8,68.3,92.5,68.3,92.3,68.1 M94.3,65.9c0.3-0.7-0.2-1.3-0.3-2c-0.4-0.2-0.6,0.4-0.8,0.5c-0.7,0.1-0.6-0.6-0.9-0.9 c-0.5,0.1-1-0.1-1.4,0.2c-0.9-0.3-1.6,0-2.5-0.2c-0.8-0.2-1.8,0.4-2.5-0.2c-0.6-0.1-1.1,0.5-1.7,0.2c-0.7,0.7-1-0.6-1.8-0.2 c-0.3,0.5-1.1,0-1.5,0.4c-0.7-0.2-1.3,0-1.8-0.2c-0.8-0.1-1.6,0-2.4,0.2c0,0.2-0.1,0.4,0.1,0.5c-0.7,0.4,0.3,0.9-0.2,1.4 c-0.9,0.5,0.3,0.9-0.1,1.6c0.4,0.6-0.2,1.1-0.3,1.7c0.4,0.2,0,0.6-0.1,0.8c0.3,0.2,0,0.6,0.4,0.8c0,0.1,0.1,0.2-0.1,0.3 c-0.1,0.3-0.6,0.8-0.2,1.3c-0.1,0.8-0.5,1.4-0.6,2.2c0.3,0.4,0.1,1.2,0.2,1.6c0,0.6-0.1,1.2-0.4,1.7l-0.2-0.2 c-0.2,0.3-0.5-0.2-0.4,0.2c0.1,0,0.3,0,0.4-0.1c0.2,0.1,0.1,0.4,0.1,0.6c0.4,0.4,0.9-0.1,1.4-0.1c0.5,0.2-0.2,0.6,0.1,0.8l1.2,0.2 c-0.3,1.1,1.1,0.4,1.6,0.9c0.9-0.9,2.2,0,3.2,0.1v-0.8c0.1-0.3,0.4-0.5,0.7-0.6c0.7,0.2,1.8-0.5,2.2,0.6c1.1,0.3,2.2,0.2,3.2-0.4 l-0.1-1.9c0.2-0.5,0.3,0.2,0.7,0c0.2-0.5,0.1-1.3,0.8-1.4c0.2,0.6,0.7-0.1,1,0.3l-0.6,0.4c-0.1,0.2,0.1,0.3,0.2,0.5 c0.2,0.2,0.3-0.1,0.4-0.2c-0.2-1.1,0.9-1.3,1.3-2.1c-0.3-0.2-0.5-0.5-0.5-0.8c0.4-0.5-0.5-1,0.4-1.4c-0.2-0.5,0-1.2,0.4-1.5 c0.2-0.2,0.5-0.4,0.7,0c-0.3,0.7,0,1.3-0.2,2c0.3,0.2,0.1,0.7,0.4,0.9c-0.2,0.1-0.2,0.4-0.4,0.5c0.1,0.3-0.2,1,0.2,1.3 c0,0.3,0,0.7-0.2,1c0.2,0.2,0.4,0.3,0.6,0.2c0.4-0.7-0.1-1.4,0.4-1.9c-0.4-0.2,0-0.5,0-0.7c-0.3-0.6,0-1.3-0.2-2.1 c0.9-0.4-0.3-0.9,0.2-1.3c-0.1-0.5,0.2-1.1-0.2-1.4C93.7,68.1,94.4,66.9,94.3,65.9"></path> <path id="Tracé_51" class="st0" d="M93.5,77.6v-0.2h-0.1L93.5,77.6z"></path> </svg> 